<svg width="24" height="24" viewBox="0 0 24 24" fill="none" xmlns="http://www.w3.org/2000/svg">
<path d="M20.9867 14.4453C20.9608 15.4139 20.8841 16.05 20.6574 16.5905C20.2007 17.6795 19.3247 18.5447 18.2221 18.9958C17.6278 19.2389 16.9192 19.3073 15.7893 19.3265C15.024 19.3396 14.6414 19.3461 14.3374 19.5207C14.0335 19.6953 13.8443 20.011 13.4659 20.6424L12.978 21.4566C12.5431 22.1822 11.4568 22.1822 11.022 21.4566L10.5341 20.6424C10.1556 20.011 9.96643 19.6953 9.6625 19.5207C9.35857 19.3461 8.97592 19.3396 8.21061 19.3265C7.08078 19.3073 6.37219 19.2389 5.77791 18.9958C4.67529 18.5447 3.79925 17.6795 3.34253 16.5905" stroke="#1C274C" stroke-width="1.5" stroke-linecap="round"/>
<path d="M3 11.7773C3 8.86759 3 7.41271 3.66312 6.34395C4.03417 5.74592 4.54326 5.24312 5.14876 4.87664C6.11255 4.29332 7.02949 4.22961 9.3 4.22266" stroke="#1C274C" stroke-width="1.5" stroke-linecap="round"/>
<path d="M12 4.22266L14.25 6.4449" stroke="#1C274C" stroke-width="1.5" stroke-linecap="round"/>
<path d="M12 4.22224L14.25 2" stroke="#1C274C" stroke-width="1.5" stroke-linecap="round"/>
<path d="M12 4.22266H12.0013C14.9469 4.22266 17.7693 4.22266 18.8512 4.8775C19.4567 5.24397 19.9658 5.74677 20.3369 6.3448C21 7.41357 21 8.86844 21 11.7782" stroke="#1C274C" stroke-width="1.5" stroke-linecap="round"/>
</svg>
