<svg width="24" height="24" viewBox="0 0 24 24" fill="none" xmlns="http://www.w3.org/2000/svg">
<path d="M22 10.5V11.5C22 13.8297 22 14.9946 21.6194 15.9134C21.1119 17.1386 20.1386 18.1119 18.9134 18.6194C18.2531 18.8929 17.4658 18.9698 16.2104 18.9915C15.3601 19.0061 14.9349 19.0134 14.5972 19.2098C14.2595 19.4062 14.0492 19.7615 13.6288 20.4718L13.0867 21.3877C12.6035 22.204 11.3965 22.204 10.9133 21.3877L10.3712 20.4718C9.95074 19.7614 9.7405 19.4063 9.4028 19.2098C9.06511 19.0134 8.63994 19.0061 7.78959 18.9915C6.53423 18.9698 5.7469 18.8929 5.0866 18.6194C3.86146 18.1119 2.88809 17.1386 2.38062 15.9134" stroke="#1C274C" stroke-width="1.5" stroke-linecap="round"/>
<path d="M13.5 2H10.5C7.22657 2 5.58985 2 4.38751 2.7368C3.71473 3.14908 3.14908 3.71473 2.7368 4.38751C2 5.58985 2 7.22657 2 10.5" stroke="#1C274C" stroke-width="1.5" stroke-linecap="round"/>
<circle cx="19" cy="5" r="3" stroke="#1C274C" stroke-width="1.5"/>
</svg>
