<svg width="24" height="24" viewBox="0 0 24 24" fill="none" xmlns="http://www.w3.org/2000/svg">
<path d="M17.5625 10.3304L20.5449 7.34795L21.1938 6.69914C22.2687 5.62415 22.2687 3.88124 21.1938 2.80624C20.1188 1.73125 18.3759 1.73125 17.3009 2.80624L16.652 3.45506M16.652 3.45506C16.652 3.45506 16.7331 4.83379 17.9497 6.05032C19.1662 7.26685 20.5449 7.34795 20.5449 7.34795M16.652 3.45506L10.6872 9.41993C10.2832 9.82394 10.0812 10.0259 9.90743 10.2487C9.70249 10.5114 9.52679 10.7957 9.38344 11.0965C9.26191 11.3515 9.17157 11.6225 8.99089 12.1646L8.41242 13.9M14.5801 13.3128C14.1761 13.7168 13.9741 13.9188 13.7513 14.0926C13.4886 14.2975 13.2043 14.4732 12.9035 14.6166C12.6485 14.7381 12.3775 14.8284 11.8354 15.0091L10.1 15.5876L8.97709 15.9619C8.71035 16.0508 8.41626 15.9814 8.21744 15.7826C8.01862 15.5837 7.9492 15.2897 8.03811 15.0229L8.41242 13.9M8.41242 13.9L10.1 15.5876" stroke="#1C274C" stroke-width="1.5" stroke-linecap="round"/>
<path d="M22 12C22 17.5228 17.5228 22 12 22C10.1786 22 8.47087 21.513 7 20.6622M12 2C6.47715 2 2 6.47715 2 12C2 13.8214 2.48697 15.5291 3.33782 17" stroke="#1C274C" stroke-width="1.5" stroke-linecap="round"/>
</svg>
