<svg width="24" height="24" viewBox="0 0 24 24" fill="none" xmlns="http://www.w3.org/2000/svg">
<path d="M14.3601 4.07866L15.2869 3.15178C16.8226 1.61607 19.3125 1.61607 20.8482 3.15178C22.3839 4.68748 22.3839 7.17735 20.8482 8.71306L19.9213 9.63993M14.3601 4.07866C14.3601 4.07866 14.4759 6.04828 16.2138 7.78618C17.9517 9.52407 19.9213 9.63993 19.9213 9.63993M14.3601 4.07866L12 6.43872M8.5 9.93872L5.83882 12.5999C5.26166 13.1771 4.97308 13.4656 4.7249 13.7838C4.43213 14.1592 4.18114 14.5653 3.97634 14.995C3.80273 15.3593 3.67368 15.7465 3.41556 16.5208L2.32181 19.8021L2.05445 20.6042C1.92743 20.9852 2.0266 21.4053 2.31063 21.6894C2.59466 21.9734 3.01478 22.0726 3.39584 21.9456L4.19792 21.6782L7.47918 20.5844C8.25352 20.3263 8.6407 20.1973 9.00498 20.0237C9.43469 19.8189 9.84082 19.5679 10.2162 19.2751C10.5344 19.0269 10.8229 18.7383 11.4001 18.1612L11.5613 18L14.6607 14.9006L19.9213 9.63993M4.19792 21.6782L2.32181 19.8021" stroke="#1C274C" stroke-width="1.5" stroke-linecap="round"/>
</svg>
