<svg width="24" height="24" viewBox="0 0 24 24" fill="none" xmlns="http://www.w3.org/2000/svg">
<path d="M14 21.7101C13.3663 21.8987 12.695 22 12 22C8.13401 22 5 18.866 5 15V11.9375C5 9.76288 6.76288 8 8.9375 8H15.0625C17.2371 8 19 9.76288 19 11.9375V15C19 16.9073 18.2372 18.6364 17 19.899" stroke="#1C274C" stroke-width="1.5" stroke-linecap="round"/>
<path d="M16.5 8.5V7.5C16.5 5.01472 14.4853 3 12 3C10.4398 3 9.06504 3.79401 8.25777 5M7.5 7.5V8.5" stroke="#1C274C" stroke-width="1.5" stroke-linecap="round"/>
<path d="M19 14H22" stroke="#1C274C" stroke-width="1.5" stroke-linecap="round"/>
<path d="M5 14H2" stroke="#1C274C" stroke-width="1.5" stroke-linecap="round"/>
<path d="M14.5 3.5L17 2" stroke="#1C274C" stroke-width="1.5" stroke-linecap="round"/>
<path d="M9.5 3.5L7 2" stroke="#1C274C" stroke-width="1.5" stroke-linecap="round"/>
<path d="M20.5 20.0002L18.5 19.2002" stroke="#1C274C" stroke-width="1.5" stroke-linecap="round"/>
<path d="M20.5 7.9998L18.5 8.7998" stroke="#1C274C" stroke-width="1.5" stroke-linecap="round"/>
<path d="M3.5 20.0002L5.5 19.2002" stroke="#1C274C" stroke-width="1.5" stroke-linecap="round"/>
<path d="M3.5 7.9998L5.5 8.7998" stroke="#1C274C" stroke-width="1.5" stroke-linecap="round"/>
<path d="M12 21.5V15" stroke="#1C274C" stroke-width="1.5" stroke-linecap="round"/>
</svg>
