<svg width="24" height="24" viewBox="0 0 24 24" fill="none" xmlns="http://www.w3.org/2000/svg">
<path d="M12.728 5.53587C14.2901 3.97377 16.8227 3.9737 18.3848 5.53579" stroke="#1C274C" stroke-width="1.5" stroke-linecap="round"/>
<path d="M18.3848 5.53564C19.9469 7.09774 19.9469 9.63048 18.3848 11.1926" stroke="#1C274C" stroke-width="1.5" stroke-linecap="round"/>
<path d="M20.5061 3.41406L18.3848 5.53538" stroke="#1C274C" stroke-width="1.5" stroke-linecap="round"/>
<path d="M18.2523 15.9999C18.1964 16.2464 18.1327 16.4972 18.0602 16.7508C17.7884 17.7017 17.3599 18.6586 16.9091 19.5124C15.9551 21.3193 13.7457 21.8796 12.0373 21.0075L10.9409 20.3406C7.93352 18.511 5.40903 15.9865 3.57952 12.9791L2.91264 11.8829C2.04059 10.1745 2.60083 7.96504 4.40773 7.01101C5.26153 6.5602 6.21846 6.13178 7.16933 5.85995C10.0288 5.04249 12.5347 5.34222 12.5347 5.34222L18.3848 11.1924" stroke="#1C274C" stroke-width="1.5" stroke-linecap="round"/>
</svg>
