<svg width="24" height="24" viewBox="0 0 24 24" fill="none" xmlns="http://www.w3.org/2000/svg">
<path d="M21.7027 11C21.9655 11.4639 22.0574 11.8786 21.9652 12.3049C21.7212 13.4335 20.3365 13.9537 17.567 14.9943L15.6499 15.7146C14.9082 15.9933 14.5373 16.1326 14.2511 16.3805C14.1258 16.489 14.0136 16.6119 13.917 16.7466C13.6962 17.0543 13.591 17.4366 13.3807 18.2012C12.9022 19.9401 12.663 20.8096 12.0933 21.1347C11.8533 21.2717 11.5816 21.3435 11.3053 21.3431C10.6496 21.3421 10.0126 20.7044 8.73845 19.429L4.62176 15.3081C3.35569 14.0408 2.72266 13.4071 2.71854 12.7552C2.71676 12.4734 2.78993 12.1962 2.93053 11.9521C3.25578 11.3873 4.11889 11.1494 5.84512 10.6735C6.61099 10.4623 6.99393 10.3567 7.30174 10.1351C7.43986 10.0357 7.56548 9.91994 7.6759 9.79038C7.92197 9.50164 8.05874 9.12835 8.33227 8.38177L9.02673 6.48636C10.0528 3.68593 10.5658 2.28571 11.6973 2.03606C12.8289 1.78641 13.8824 2.84101 15.9894 4.9502L18.5366 7.5" stroke="#1C274C" stroke-width="1.5" stroke-linecap="round"/>
<path d="M2 21.9998L6.65323 17.3418" stroke="#1C274C" stroke-width="1.5" stroke-linecap="round"/>
</svg>
