<svg width="24" height="24" viewBox="0 0 24 24" fill="none" xmlns="http://www.w3.org/2000/svg">
<path opacity="0.5" d="M20.1278 11.1429C20.1278 16.1924 16.0697 20.2858 11.0639 20.2858C6.05804 20.2858 2 16.1924 2 11.1429C2 6.09342 6.05804 2 11.0639 2C16.0697 2 20.1278 6.09342 20.1278 11.1429Z" fill="#1C274C"/>
<path d="M19.7206 17.7819C19.9087 17.7975 20.134 17.8665 20.3632 17.9362C20.3852 17.9429 20.4076 17.9491 20.4296 17.9557C20.4495 17.9617 20.4693 17.9683 20.4892 17.9743C20.6999 18.0376 20.9099 18.1001 21.0693 18.1862C21.9844 18.6805 22.2799 19.8619 21.707 20.735C21.6071 20.8871 21.4516 21.0433 21.2958 21.1999C21.2811 21.2147 21.2666 21.23 21.2519 21.2448C21.2373 21.2595 21.2225 21.274 21.208 21.2887C21.0527 21.4458 20.8978 21.6021 20.747 21.7028C19.8814 22.281 18.7108 21.9834 18.2206 21.0602C18.1353 20.8994 18.0725 20.6878 18.0097 20.4753C18.0038 20.4551 17.9981 20.4348 17.9921 20.4147C17.9855 20.3925 17.9782 20.3705 17.9716 20.3483C17.9025 20.117 17.8348 19.8895 17.8193 19.6999C17.73 18.6057 18.6359 17.6918 19.7206 17.7819Z" fill="#1C274C"/>
<path d="M12.7333 9.2028C13.0261 8.91016 13.501 8.91037 13.7939 9.2028C14.0868 9.49569 14.0868 9.97143 13.7939 10.2643L10.2587 13.7995C9.96586 14.0924 9.49108 14.0923 9.19819 13.7995C8.90529 13.5066 8.90529 13.0318 9.19819 12.7389L12.7333 9.2028Z" fill="#1C274C"/>
</svg>
