<svg width="24" height="24" viewBox="0 0 24 24" fill="none" xmlns="http://www.w3.org/2000/svg">
<path d="M12 14C12.9428 14 13.4142 14 13.7071 14.2929C14 14.5858 14 15.0572 14 16V20C14 20.9428 14 21.4142 13.7071 21.7071C13.4142 22 12.9428 22 12 22C11.0572 22 10.5858 22 10.2929 21.7071C10 21.4142 10 20.9428 10 20V16C10 15.0572 10 14.5858 10.2929 14.2929C10.5858 14 11.0572 14 12 14ZM12 14H12.0047M6 4.5C6 3.56538 6 3.09808 6.20096 2.75C6.33261 2.52197 6.52197 2.33261 6.75 2.20096C7.09808 2 7.56538 2 8.5 2H15.5C16.4346 2 16.9019 2 17.25 2.20096C17.478 2.33261 17.6674 2.52197 17.799 2.75C18 3.09808 18 3.56538 18 4.5C18 5.43462 18 5.90192 17.799 6.25C17.6674 6.47803 17.478 6.66739 17.25 6.79904C16.9019 7 16.4346 7 15.5 7H8.5C7.56538 7 7.09808 7 6.75 6.79904C6.52197 6.66739 6.33261 6.47803 6.20096 6.25C6 5.90192 6 5.43462 6 4.5Z" stroke="#1C274C" stroke-width="1.5"/>
<path opacity="0.5" d="M6 4.5H5.5" stroke="#1C274C" stroke-width="1.5"/>
<path opacity="0.5" d="M18.0002 4.5H19.0451C19.9348 4.5 20.3797 4.5 20.7329 4.63903C21.2492 4.84232 21.6579 5.25099 21.8611 5.76733C22.0002 6.12047 22.0002 6.56535 22.0002 7.4551C22.0002 8.232 22.0002 8.62044 21.886 8.94369C21.7192 9.41611 21.3811 9.8087 20.9386 10.0438C20.6359 10.2046 20.2517 10.2623 19.4834 10.3775L15.4068 10.989C13.7818 11.2328 12.9692 11.3546 12.4847 11.9173C12.1035 12.3599 12.0222 12.9628 12.0049 14" stroke="#1C274C" stroke-width="1.5" stroke-linecap="round"/>
</svg>
