<svg width="24" height="24" viewBox="0 0 24 24" fill="none" xmlns="http://www.w3.org/2000/svg">
<path d="M18 6.01732C19.5534 6.06413 20.48 6.23738 21.1213 6.87868C21.6112 7.36857 21.828 8.02491 21.9239 9M10 6H8C5.17157 6 3.75736 6 2.87868 6.87868C2 7.75736 2 9.17157 2 12C2 14.8284 2 16.2426 2.87868 17.1213C3.75736 18 5.17157 18 8 18H10M14 18H16C18.8284 18 20.2426 18 21.1213 17.1213C21.8897 16.3529 21.9862 15.175 21.9983 13" stroke="#1C274C" stroke-width="1.5" stroke-linecap="round"/>
<path d="M18 18L19 20" stroke="#1C274C" stroke-width="1.5"/>
<path d="M6 18L5 20" stroke="#1C274C" stroke-width="1.5"/>
<circle cx="14" cy="9" r="5" stroke="#1C274C" stroke-width="1.5"/>
<path d="M12 9C12 10.1046 12.8954 11 14 11C15.1046 11 16 10.1046 16 9C16 7.89543 15.1046 7 14 7" stroke="#1C274C" stroke-width="1.5" stroke-linecap="round"/>
<path d="M5.5 9.5L5.5002 11.0001" stroke="#1C274C" stroke-width="1.5" stroke-linecap="round" stroke-linejoin="round"/>
</svg>
