<svg width="24" height="24" viewBox="0 0 24 24" fill="none" xmlns="http://www.w3.org/2000/svg">
<path d="M2 14L2 16C2 18.8284 2 20.2426 2.87868 21.1213C3.75736 22 5.17157 22 8 22L16 22C18.8284 22 20.2426 22 21.1213 21.1213C22 20.2426 22 18.8284 22 16V12C22 9.17157 22 7.75736 21.1213 6.87868C20.2426 6 18.8284 6 16 6L8 6C5.17157 6 3.75736 6 2.87868 6.87868C2.23738 7.51998 2.06413 8.44655 2.01732 10" stroke="#1C274C" stroke-width="1.5" stroke-linecap="round"/>
<path d="M9 2L12 5.5L15 2" stroke="#1C274C" stroke-width="1.5" stroke-linecap="round"/>
<path d="M16 6V10M16 22V14" stroke="#1C274C" stroke-width="1.5" stroke-linecap="round"/>
<path d="M19 12H19.0001" stroke="#1C274C" stroke-width="1.5" stroke-linecap="round" stroke-linejoin="round"/>
<path d="M19 16H19.0001" stroke="#1C274C" stroke-width="1.5" stroke-linecap="round" stroke-linejoin="round"/>
</svg>
