<svg width="24" height="24" viewBox="0 0 24 24" fill="none" xmlns="http://www.w3.org/2000/svg">
<path d="M8.10684 17.4174L15.4867 10.3512C15.9347 9.92215 16.1588 9.70764 16.2759 9.47485C16.4856 9.0579 16.4856 8.5722 16.2759 8.15525C16.1588 7.92246 15.9347 7.70794 15.4867 7.27892M3.50781 10.1464L9.49724 4.41148C10.5416 3.4115 11.0638 2.9115 11.607 2.6112C13.0812 1.79627 14.8974 1.79627 16.3716 2.6112C16.9148 2.9115 17.437 3.4115 18.4814 4.41148" stroke="#1C274C" stroke-width="1.5" stroke-linecap="round"/>
<path opacity="0.5" d="M15.4868 7.27954C15.0387 6.85052 14.8147 6.63601 14.5715 6.5239C14.1361 6.32311 13.6288 6.32311 13.1934 6.5239C12.9502 6.63601 12.7262 6.85052 12.2781 7.27954L4.95178 14.2945C3.85303 15.3466 3.30366 15.8726 3.11183 16.4842C2.96272 16.9597 2.96272 17.4666 3.11183 17.9421C3.30366 18.5537 3.85303 19.0797 4.95178 20.1318C6.05053 21.1838 6.5999 21.7099 7.2387 21.8935C7.73526 22.0363 8.26468 22.0363 8.76124 21.8935C9.40004 21.7099 9.94941 21.1838 11.0482 20.1318L18.4815 13.0144C19.5258 12.0144 20.048 11.5144 20.3617 10.9943C21.2128 9.58279 21.2128 7.84374 20.3617 6.43223C20.048 5.91209 19.5258 5.4121 18.4815 4.41211" stroke="#1C274C" stroke-width="1.5"/>
</svg>
