<svg width="24" height="24" viewBox="0 0 24 24" fill="none" xmlns="http://www.w3.org/2000/svg">
<path fill-rule="evenodd" clip-rule="evenodd" d="M11.1562 2C16.2132 2 20.3133 6.09936 20.3135 11.1562C20.3135 16.2133 16.2133 20.3135 11.1562 20.3135C6.09936 20.3133 2 16.2132 2 11.1562C2.0002 6.09948 6.09948 2.0002 11.1562 2ZM8.74707 10.4336C8.34791 10.4336 8.02454 10.7571 8.02441 11.1562C8.02441 11.5555 8.34783 11.8789 8.74707 11.8789H13.5664C13.9655 11.8787 14.2891 11.5554 14.2891 11.1562C14.2889 10.7572 13.9654 10.4338 13.5664 10.4336H8.74707Z" fill="#1C274C"/>
<path fill-rule="evenodd" clip-rule="evenodd" d="M18.8382 18.8387C19.1205 18.5564 19.5782 18.5564 19.8605 18.8387L21.7882 20.7664C22.0705 21.0487 22.0705 21.5064 21.7882 21.7887C21.5059 22.071 21.0482 22.071 20.7659 21.7887L18.8382 19.861C18.5559 19.5787 18.5559 19.121 18.8382 18.8387Z" fill="#1C274C"/>
</svg>
