<svg width="24" height="24" viewBox="0 0 24 24" fill="none" xmlns="http://www.w3.org/2000/svg">
<path fill-rule="evenodd" clip-rule="evenodd" d="M11.0635 2C16.0692 2 20.1278 6.09324 20.1279 11.1426C20.1279 16.1921 16.0693 20.2861 11.0635 20.2861C6.05782 20.2859 2 16.1919 2 11.1426C2.00017 6.09338 6.05793 2.00022 11.0635 2ZM11.0635 8.34961C10.6466 8.34987 10.3087 8.69079 10.3086 9.11133V10.3818H9.0498C8.63265 10.3818 8.29492 10.7228 8.29492 11.1436C8.29507 11.5642 8.63274 11.9053 9.0498 11.9053H10.3086V13.1748C10.3086 13.5954 10.6465 13.9363 11.0635 13.9365C11.4806 13.9365 11.8193 13.5956 11.8193 13.1748V11.9053H13.0781C13.4952 11.9053 13.8329 11.5642 13.833 11.1436C13.833 10.7228 13.4953 10.3818 13.0781 10.3818H11.8193V9.11133C11.8192 8.69062 11.4806 8.34961 11.0635 8.34961Z" fill="#1C274C"/>
<path fill-rule="evenodd" clip-rule="evenodd" d="M17.8196 19.7011C17.7303 18.6069 18.6359 17.6934 19.7206 17.7835C19.9087 17.7991 20.1338 17.8675 20.3632 17.9372C20.3853 17.9439 20.4074 17.9507 20.4295 17.9574C20.4495 17.9634 20.4695 17.9694 20.4895 17.9754C20.7003 18.0388 20.9099 18.1018 21.0693 18.1879C21.9846 18.6823 22.28 19.8636 21.7068 20.7367C21.6069 20.8888 21.452 21.0446 21.2963 21.2012C21.2815 21.2161 21.2667 21.231 21.252 21.2458C21.2372 21.2607 21.2225 21.2756 21.2078 21.2905C21.0525 21.4476 20.8981 21.6039 20.7473 21.7046C19.8817 22.2828 18.7106 21.9848 18.2205 21.0615C18.1351 20.9007 18.0727 20.6893 18.0099 20.4767C18.0039 20.4565 17.9979 20.4364 17.9919 20.4162C17.9853 20.3939 17.9786 20.3715 17.972 20.3493C17.9029 20.1179 17.835 19.8908 17.8196 19.7011Z" fill="#1C274C"/>
</svg>
