<svg width="24" height="24" viewBox="0 0 24 24" fill="none" xmlns="http://www.w3.org/2000/svg">
<path d="M12.765 20.4155C14.8777 22.5282 18.3029 22.5282 20.4155 20.4155C22.5282 18.3029 22.5282 14.8777 20.4155 12.765M12.765 20.4155L20.4155 12.765M12.765 20.4155L8.17476 15.8252M5 12.6505L3.58447 11.235C1.47184 9.12233 1.47184 5.69709 3.58447 3.58447C5.69709 1.47184 9.12233 1.47184 11.235 3.58447L15.8252 8.17476M3.58447 11.235L11.235 3.58447M20.4155 12.765L19 11.3495" stroke="#1C274C" stroke-width="1.5" stroke-linecap="round"/>
<path d="M11.9998 9.17139H11.9999" stroke="#1C274C" stroke-width="1.5" stroke-linecap="round" stroke-linejoin="round"/>
<path d="M9.17139 12H9.17149" stroke="#1C274C" stroke-width="1.5" stroke-linecap="round" stroke-linejoin="round"/>
<path d="M12 14.8286H12.0001" stroke="#1C274C" stroke-width="1.5" stroke-linecap="round" stroke-linejoin="round"/>
<path d="M14.8284 12H14.8285" stroke="#1C274C" stroke-width="1.5" stroke-linecap="round" stroke-linejoin="round"/>
</svg>
