<svg width="24" height="24" viewBox="0 0 24 24" fill="none" xmlns="http://www.w3.org/2000/svg">
<path d="M18 11.9999H17.1986C16.3689 11.9999 15.9541 11.9999 15.6102 12.1946C15.2664 12.3893 15.0529 12.745 14.6261 13.4564L14.5952 13.5079C14.1976 14.1706 13.9987 14.502 13.7095 14.4965C13.4202 14.4911 13.2339 14.1525 12.8615 13.4753L11.1742 10.4075C10.8269 9.77606 10.6533 9.46034 10.3759 9.44537C10.0986 9.43039 9.892 9.72558 9.47875 10.3159L9.19573 10.7203C8.75681 11.3473 8.53734 11.6608 8.21173 11.8303C7.88612 11.9999 7.50342 11.9999 6.73803 11.9999H6" stroke="#1C274C" stroke-width="1.5" stroke-linecap="round"/>
<path d="M3.29334 13C2.50729 11.7374 2 10.4241 2 9.13707C2 3.08498 7.50016 0.825433 12 5.5006C16.4998 0.825433 22 3.08498 22 9.13703C22 12.7599 17.9806 16.5914 15.0383 18.9109C13.7063 19.9609 13.0403 20.4859 12 20.4859C10.9597 20.4859 10.2937 19.9609 8.96173 18.9108C8.02863 18.1753 6.9872 17.2876 6 16.3028" stroke="#1C274C" stroke-width="1.5" stroke-linecap="round" stroke-linejoin="round"/>
</svg>
