<svg width="24" height="24" viewBox="0 0 24 24" fill="none" xmlns="http://www.w3.org/2000/svg">
<path d="M13.2683 17.9955C13.3315 17.9383 13.3936 17.8791 13.4545 17.8182L14.9091 16.3636L17.0909 14.1818L17.7374 13.5354C18.4911 12.7817 18.8679 12.4048 19.0239 11.9763C19.1893 11.5218 19.1893 11.0236 19.0239 10.5692M17.0909 14.1818L9.81818 6.90909M14.9091 16.3636L12.0237 13.4783M9.81818 6.90909L10.4646 6.26263C11.2183 5.50893 11.5952 5.13208 12.0237 4.97611C12.4782 4.8107 12.9764 4.8107 13.4308 4.97611C13.8594 5.13208 14.2362 5.50893 14.9899 6.26263L16.3636 7.63636L18.5455 5.45455M9.81818 6.90909L9 7.72727M13.2683 17.9955C11.2497 19.8246 8.12916 19.7655 6.18182 17.8182M13.2683 17.9955L13.2727 18M13.2683 17.9955L11.6268 16.3541M6.18182 17.8182C4.17351 15.8099 4.17351 12.5538 6.18182 10.5455M6.18182 17.8182L4 20M18.5455 5.45455L20 6.90909M18.5455 5.45455L17.0909 4" stroke="#1C274C" stroke-width="1.5" stroke-linecap="round" stroke-linejoin="round"/>
</svg>
