<?xml version="1.0" encoding="UTF-8" standalone="no"?>
<!-- Created with Inkscape (http://www.inkscape.org/) -->

<svg
   version="1.1"
   id="svg1"
   width="1024"
   height="1024"
   viewBox="0 0 1024 1024"
   xmlns="http://www.w3.org/2000/svg"
   xmlns:svg="http://www.w3.org/2000/svg">
  <defs
     id="defs1" />
  <path
     style="fill:#ffffff;fill-opacity:1;stroke-width:1"
     d="m 231.5681,895.45855 c 0,0 -0.0571,-317.86815 1.29017,-323.02014 0.77366,-2.95847 2.46016,-0.88636 8.54029,10.49298 54.26296,101.55685 176.20858,192.29731 319.11363,237.45438 132.65529,41.91819 202.12851,-47.14121 123.04329,-157.73218 -26.70285,-37.34066 -35.1279,-46.30252 -289.27428,-307.70598 -41.68886,-42.87927 -70.43715,-75.86223 -70.43715,-80.81265 0,-0.55338 8.41825,3.21476 18.70722,8.37362 22.41512,11.2389 124.57156,57.3099 187.5073,84.56295 154.71064,66.99431 174.3271,77.80274 214.90808,118.41165 135.85907,135.95258 69.01703,363.54653 -118.3266,402.89642 -50.74216,10.65795 -395.07195,7.07895 -395.07195,7.07895 z M 654.48336,726.27916 C 630.07696,715.27198 591.70539,698.1938 569.21322,688.32763 386.61869,608.23267 349.26149,590.3948 314.27291,566.59497 150.28662,455.0487 181.8234,203.99187 367.62727,141.85371 c 37.3645,-12.49577 26.81179,-11.93048 235.95504,-12.63963 98.74085,-0.3348 189.13139,0.51221 189.13139,0.51221 0,0 -0.10372,72.99984 0.0553,140.3136 0.18383,77.80547 -0.0251,151.05739 0.11642,162.78203 0.30234,25.05623 0.1885,25.16794 -8.46706,8.30759 C 733.35615,341.6643 609.72619,247.33713 473.50184,203.90637 329.25848,157.919 255.60798,254.65575 346.88762,370.20863 c 25.40669,32.16291 62.73457,72.02358 167.41255,178.77205 158.81179,161.953 192.67796,197.91164 185.92484,197.41248 -0.75151,-0.0555 -21.33525,-9.10685 -45.74165,-20.114 z"
     id="path1" />
</svg>
