<svg width="24" height="24" viewBox="0 0 24 24" fill="none" xmlns="http://www.w3.org/2000/svg">
<path d="M7 4.71476C7 6.19986 8.72593 7.76428 10.1497 8.80219C10.9489 9.38471 11.3484 9.67598 12 9.67598C12.6516 9.67598 13.0512 9.38472 13.8503 8.8022C15.2741 7.7643 17 6.19988 17 4.71475C17 2.03759 14.2499 1.03807 12 3.10615C9.75008 1.03807 7 2.03759 7 4.71476Z" stroke="#1C274C" stroke-width="1.5" stroke-linejoin="round"/>
<path opacity="0.5" d="M11.7518 18.5326C12.4312 18.5968 13.0435 18.5829 13.5668 18.5292C13.6038 18.5254 13.6403 18.5214 13.6764 18.5172M13.6764 18.5172C13.6399 18.525 13.6033 18.5292 13.5668 18.5292M13.6764 18.5172C13.7962 18.5033 13.911 18.4874 14.0206 18.4699C14.932 18.3245 15.697 17.8375 16.3974 17.3084L18.2046 15.9433C18.8417 15.462 19.7873 15.4619 20.4245 15.943C20.9982 16.3762 21.1736 17.0894 20.8109 17.6707C20.388 18.3487 19.7921 19.216 19.2199 19.7459C18.6469 20.2766 17.7939 20.7504 17.0975 21.0865C16.326 21.4589 15.4738 21.6734 14.6069 21.8138C12.8488 22.0983 11.0166 22.0549 9.27633 21.6964C8.29253 21.4937 7.27079 21.3884 6.25993 21.3884H4M13.6764 18.5172C13.8222 18.486 13.9669 18.396 14.1028 18.2775C14.746 17.7161 14.7866 16.77 14.2285 16.1431C14.0991 15.9977 13.9475 15.8764 13.7791 15.7759C10.9817 14.1074 6.62942 15.3782 4 17.2429" stroke="#1C274C" stroke-width="1.5" stroke-linecap="round"/>
</svg>
