<svg width="24" height="24" viewBox="0 0 24 24" fill="none" xmlns="http://www.w3.org/2000/svg">
<path d="M20.5355 3.46447C19.0711 2 16.714 2 12 2C7.28595 2 4.92893 2 3.46447 3.46447C2 4.92893 2 7.28595 2 12C2 16.714 2 19.0711 3.46447 20.5355M20.5355 3.46447C22 4.92893 22 7.28595 22 12C22 16.714 22 19.0711 20.5355 20.5355C19.0711 22 16.714 22 12 22C7.28595 22 4.92893 22 3.46447 20.5355M20.5355 3.46447L3.46447 20.5355" stroke="#1C274C" stroke-width="1.5"/>
<path opacity="0.5" d="M18 17H13" stroke="#1C274C" stroke-width="1.5" stroke-linecap="round"/>
<path opacity="0.5" d="M10.5 8.00002H8M8 8.00002L5.5 8.00002M8 8.00002L8 5.5M8 8.00002L8 10.5" stroke="#1C274C" stroke-width="1.5" stroke-linecap="round"/>
</svg>
