<svg width="24" height="24" viewBox="0 0 24 24" fill="none" xmlns="http://www.w3.org/2000/svg">
<path d="M15.2252 2.2211C15.7606 2 16.356 2 17.5468 2H18.1157C19.9468 2 20.8624 2 21.4312 2.56715C22.0001 3.13431 22.0001 4.04713 22.0001 5.87277V6.43993C22.0001 7.62718 22.0001 8.2208 21.7783 8.75458C21.5566 9.28836 21.1356 9.70811 20.2935 10.5476L14.4467 16.3769C13.4379 17.3826 12.8221 17.9966 12.2189 18.2188C12.0478 18.2818 11.8777 18.3133 11.7 18.3133C10.8955 18.3133 10.2481 17.6679 8.95326 16.3769L7.57991 15.0077C6.2851 13.7168 5.6377 13.0713 5.6377 12.2692C5.6377 12.0767 5.67502 11.8931 5.74966 11.7075C5.98591 11.12 6.59599 10.5117 7.57991 9.53078L12.5001 4.62534M8.26658 15.6923L10.3266 13.6385" stroke="#1C274C" stroke-width="1.5" stroke-linecap="round"/>
<path d="M10.3255 6.79171L9.69627 6.38673C8.43405 5.57435 7.80294 5.16816 7.12664 5.06822C6.53023 4.98008 5.91185 5.05911 5.33941 5.29662C4.69028 5.56595 3.34539 6.9068 2.22514 8.02365C1.83482 8.41279 1.97153 9.07315 2.48449 9.27641L2.86314 9.42645C2.92498 9.45095 2.95589 9.4632 2.98636 9.47575M5.74956 11.7079L5.57332 11.5317L5.09295 11.0527" stroke="#1C274C" stroke-width="1.5" stroke-linecap="round" stroke-linejoin="round"/>
<path d="M17.1938 13.6396L17.6 14.267C18.4148 15.5254 18.8222 16.1546 18.9224 16.8289C19.0108 17.4235 18.9316 18.04 18.6933 18.6108C18.4232 19.2579 17.0783 20.5988 15.9581 21.7157L15.8741 21.7995C15.5267 22.1459 14.9285 22.0265 14.7485 21.5748M13.0223 18.9586L12.4995 18.5001L12.2183 18.2189" stroke="#1C274C" stroke-width="1.5" stroke-linecap="round" stroke-linejoin="round"/>
<path d="M14.4465 10.0976C13.6881 9.3414 13.6881 8.11535 14.4465 7.35915C15.205 6.60294 16.4348 6.60294 17.1932 7.35915C17.9517 8.11535 17.9517 9.3414 17.1932 10.0976" stroke="#1C274C" stroke-width="1.5" stroke-linecap="round"/>
</svg>
