<svg width="24" height="24" viewBox="0 0 24 24" fill="none" xmlns="http://www.w3.org/2000/svg">
<g opacity="0.5">
<path d="M13.4629 2.32555C12.9986 2.10852 12.4993 2 12 2V9.00006L16.4317 4.56841C15.5689 3.62059 14.5713 2.84361 13.4629 2.32555Z" fill="#1C274C"/>
<path d="M12 9.00006V14.5001L18.6142 7.88578C18.0421 6.6656 17.3062 5.52922 16.4317 4.56841L12 9.00006Z" fill="#1C274C"/>
<path d="M12 19.5L19.811 11.689C19.5911 10.3986 19.1838 9.10064 18.6142 7.88578L12 14.5001V19.5Z" fill="#1C274C"/>
<path d="M19.811 11.689L12 19.5V22C16.4183 22 20 18.3541 20 13.8567C20 13.1475 19.9355 12.4194 19.811 11.689Z" fill="#1C274C"/>
</g>
<path opacity="0.5" d="M16.4316 4.56836C17.3062 5.52916 18.0422 6.66557 18.6143 7.88574C19.1839 9.10061 19.5906 10.399 19.8105 11.6895C19.935 12.4197 20 13.1474 20 13.8564C20 18.3539 16.4183 22 12 22V9L16.4316 4.56836Z" fill="#1C274C"/>
<path opacity="0.5" d="M18.6143 7.88574C19.1839 9.10061 19.5906 10.399 19.8105 11.6895C19.935 12.4197 20 13.1474 20 13.8564C20 18.3539 16.4183 22 12 22V14.5L18.6143 7.88574Z" fill="#1C274C"/>
<path opacity="0.5" d="M19.811 11.689L12 19.5V22C16.4183 22 20 18.3541 20 13.8567C20 13.1475 19.9355 12.4194 19.811 11.689Z" fill="#1C274C"/>
<path fill-rule="evenodd" clip-rule="evenodd" d="M12 22C7.58172 22 4 18.3541 4 13.8567C4 9.39453 6.55332 4.18759 10.5371 2.32555C11.0014 2.10852 11.5007 2 12 2V22Z" fill="#1C274C"/>
</svg>
