<svg width="24" height="24" viewBox="0 0 24 24" fill="none" xmlns="http://www.w3.org/2000/svg">
<path d="M14.2501 6C14.2501 5.58579 14.5858 5.25 15.0001 5.25C15.4143 5.25 15.7501 5.58579 15.7501 6V7.18945L18.4698 4.46973C18.7627 4.17683 19.2374 4.17683 19.5303 4.46973C19.8232 4.76262 19.8232 5.23738 19.5303 5.53027L16.8106 8.25H18.0001C18.4143 8.25 18.7501 8.58579 18.7501 9C18.7501 9.41421 18.4143 9.75 18.0001 9.75H15.0001C14.5858 9.75 14.2501 9.41421 14.2501 9V6Z" fill="#1C274C"/>
<path d="M15.5562 14.5477L15.1007 15.0272C15.1007 15.0272 14.0181 16.167 11.0631 13.0559C8.10812 9.94484 9.1907 8.80507 9.1907 8.80507L9.47752 8.50311C10.1841 7.75924 10.2507 6.56497 9.63424 5.6931L8.37326 3.90961C7.61028 2.8305 6.13596 2.68795 5.26145 3.60864L3.69185 5.26114C3.25823 5.71766 2.96765 6.30945 3.00289 6.96594C3.09304 8.64546 3.81071 12.259 7.81536 16.4752C12.0621 20.9462 16.0468 21.1239 17.6763 20.9631C18.1917 20.9122 18.6399 20.6343 19.0011 20.254L20.4217 18.7584C21.3806 17.7489 21.1102 16.0182 19.8833 15.312L17.9728 14.2123C17.1672 13.7486 16.1858 13.8848 15.5562 14.5477Z" fill="#1C274C"/>
</svg>
