<svg width="24" height="24" viewBox="0 0 24 24" fill="none" xmlns="http://www.w3.org/2000/svg">
<g opacity="0.5">
<path d="M3 21.5127V10.2341" stroke="#1C274C" stroke-width="1.5" stroke-linecap="round"/>
<path d="M3 10.2342L3.9716 21.4707C3.99621 21.7553 3.77207 22 3.48671 22C3.21791 22 3 21.7818 3 21.5127" stroke="#1C274C" stroke-width="1.5" stroke-linecap="round"/>
</g>
<path d="M13.9951 5.22145C14.1027 4.56438 14.072 3.89203 13.9048 3.24756" stroke="#1C274C" stroke-width="1.5" stroke-linecap="round"/>
<path d="M8.59634 22C7.73256 22 7.01226 21.3386 6.93776 20.4771L6.1256 11.0844C6.07944 10.5506 6.29247 10.027 6.69813 9.67749L8.13687 8.43769C8.8044 7.86246 9.44659 7.24017 9.86194 6.46261C10.1462 5.93045 10.3667 5.36723 10.518 4.78374L10.9938 2.94989C11.0859 2.59473 11.3344 2.29611 11.6742 2.13239C11.9829 1.98365 12.3402 1.95918 12.6676 2.06435L12.8126 2.11093C13.3543 2.28495 13.7662 2.71364 13.9047 3.24753" stroke="#1C274C" stroke-width="1.5" stroke-linecap="round"/>
<path d="M13.9949 5.22135L13.3322 9.26591C13.2491 9.77321 13.6401 10.2341 14.1536 10.2341H19.3347" stroke="#1C274C" stroke-width="1.5" stroke-linecap="round"/>
<path d="M19.3349 10.2342C20.3678 10.2342 21.1515 11.1662 20.9752 12.1852L20.2697 16.265C19.6974 19.5744 16.7263 22 13.2451 22H8.59644" stroke="#1C274C" stroke-width="1.5" stroke-linecap="round"/>
</svg>
