<svg width="24" height="24" viewBox="0 0 24 24" fill="none" xmlns="http://www.w3.org/2000/svg">
<path d="M7.88651 3.77547C8.25948 3.46503 8.76404 3.15548 9.36894 3.27547L9.49198 3.30575L17.4695 5.6202C18.1116 5.80662 18.4178 6.36191 18.6043 6.85067C18.7962 7.35363 18.9558 8.04942 19.1473 8.87215L19.2498 9.30965C19.3765 9.85407 19.4045 9.91407 19.4305 9.95028C19.4315 9.95172 19.4415 9.96902 19.5105 10.0167C19.5928 10.0734 19.7077 10.1399 19.9148 10.2579L20.2723 10.462C20.9403 10.8425 21.5223 11.1707 21.9285 11.4962C22.3544 11.8375 22.7251 12.2832 22.7488 12.9268C22.7721 13.561 22.445 14.0401 22.0574 14.4288C21.6823 14.805 21.1329 15.2108 20.4939 15.6856L20.1531 15.9386C19.7316 16.2518 19.6973 16.2948 19.6726 16.337C19.6421 16.3895 19.6182 16.4657 19.533 17.0186L19.4637 17.4688C19.3754 18.0415 19.2446 18.5511 19.1062 18.9835C18.9323 19.527 18.7679 20.16 18.1111 20.5372C17.7659 20.7355 17.4221 20.7749 17.0799 20.7364C16.7833 20.7031 16.4521 20.6044 16.1297 20.5108L9.59257 18.6153C9.58792 18.6141 9.58185 18.6124 9.57499 18.6104C9.56131 18.6066 9.54329 18.6015 9.52128 18.5948C9.47701 18.5814 9.41639 18.5617 9.34159 18.5352C9.192 18.4822 8.98521 18.4002 8.73905 18.2823C8.2472 18.0467 7.59306 17.663 6.92655 17.0636L6.61405 16.7823C6.43321 16.6196 6.33065 16.5291 6.24979 16.4679C6.21398 16.4407 6.19393 16.4272 6.18436 16.422C6.2016 16.4268 6.19646 16.4183 6.11698 16.4259C6.02205 16.4349 5.89523 16.458 5.66288 16.5011L5.26151 16.5753C4.51596 16.7136 3.86201 16.8372 3.35233 16.8468C2.81986 16.8567 2.22354 16.7462 1.8289 16.1954C1.45878 15.6788 1.48956 15.0779 1.59843 14.544C1.70788 14.0073 1.94236 13.3323 2.2205 12.5284L2.36894 12.1007C2.54976 11.578 2.56483 11.497 2.56229 11.4278C2.55982 11.3626 2.54102 11.2899 2.32304 10.796L2.1453 10.3927C1.8102 9.63331 1.5249 8.99154 1.37577 8.46981C1.22482 7.94161 1.15843 7.35665 1.47636 6.81161C1.80952 6.2405 2.36608 6.04679 2.90214 5.98055C3.40995 5.91783 4.07083 5.94854 4.82304 5.98055L5.22636 5.99813C5.46091 6.00811 5.58867 6.01235 5.68339 6.00789C5.73009 6.00568 5.75195 6.002 5.75956 6.00008C5.76615 5.99631 5.78973 5.98024 5.84061 5.93172C5.91938 5.85662 6.0172 5.74909 6.18436 5.56258L6.4744 5.23934C7.01832 4.63249 7.4826 4.11169 7.88651 3.77547ZM11.5555 14.7042L11.4861 15.1544C11.3557 16.001 11.2476 16.7123 11.0945 17.2364C11.0723 17.3125 11.046 17.3896 11.0183 17.4669L16.5476 19.0704C16.9182 19.1779 17.107 19.2304 17.2469 19.2462C17.3411 19.2568 17.3506 19.2442 17.3641 19.2364C17.4049 19.213 17.4244 19.1964 17.4607 19.127C17.518 19.0175 17.5715 18.8579 17.6775 18.5264C17.7949 18.1595 17.9063 17.7266 17.9812 17.2403L18.0506 16.7901C18.0671 16.6825 18.0821 16.5758 18.0994 16.4708L11.576 14.5792C11.5698 14.6179 11.5624 14.6594 11.5555 14.7042ZM9.07499 4.76864C9.03217 4.79029 8.95858 4.83454 8.84647 4.92782C8.5477 5.17651 8.16979 5.59523 7.59159 6.24032L7.30155 6.56356C7.03087 6.86556 6.75027 7.20193 6.36503 7.37215C5.9662 7.5483 5.53607 7.51206 5.16288 7.49618L4.75956 7.47957C3.95121 7.44518 3.44081 7.42614 3.08671 7.46981C2.92051 7.49034 2.83976 7.51994 2.80448 7.53817C2.78292 7.54936 2.77891 7.55438 2.77128 7.56746C2.76251 7.58229 2.70718 7.66936 2.81815 8.0577C2.93206 8.45614 3.16368 8.9857 3.51737 9.78719L3.69608 10.1905C3.86908 10.5825 4.04593 10.9548 4.06132 11.3731C4.07653 11.7877 3.92957 12.1767 3.78593 12.5919L3.63847 13.0186C3.34561 13.865 3.15297 14.4279 3.06815 14.8438C3.02719 15.0447 3.02054 15.168 3.02714 15.2423C3.03203 15.2969 3.04291 15.3151 3.04667 15.3204C3.04764 15.3208 3.04932 15.3209 3.05058 15.3214C3.07927 15.3317 3.1567 15.3499 3.32401 15.3468C3.67939 15.3401 4.18619 15.2494 4.98808 15.1007L5.38847 15.0264C5.75439 14.9586 6.18394 14.8592 6.60233 14.9806C6.82573 15.0454 7.00331 15.1558 7.15604 15.2716C7.2987 15.3797 7.45456 15.521 7.61698 15.6671L7.92948 15.9483C8.47074 16.4352 8.99873 16.744 9.38651 16.9298C9.45697 16.9635 9.5237 16.9909 9.58378 17.0167C9.60451 16.9642 9.6299 16.8992 9.65409 16.8165C9.77272 16.4104 9.86638 15.8176 10.0037 14.9259L10.0721 14.4766C10.1389 14.0426 10.1911 13.6234 10.3992 13.2667C10.6133 12.8997 10.9537 12.6642 11.281 12.421L11.6219 12.1671C12.3004 11.6629 12.7397 11.3341 13.0174 11.0557C13.2822 10.7902 13.2732 10.6941 13.2723 10.6681C13.2717 10.6516 13.2838 10.57 13.0125 10.3526C12.7214 10.1195 12.2664 9.85785 11.5525 9.45125L11.1951 9.24715C10.8572 9.05471 10.4842 8.86025 10.2332 8.50985C9.99168 8.17269 9.90826 7.7517 9.81132 7.33504L9.70878 6.89754C9.50664 6.02873 9.37187 5.45529 9.22538 5.07137C9.15931 4.89822 9.10598 4.81123 9.07499 4.76864ZM14.741 10.3565C14.7568 10.4384 14.768 10.5241 14.7713 10.6134C14.7944 11.2475 14.4675 11.7267 14.0799 12.1153C13.7203 12.4759 13.1997 12.8619 12.5945 13.3116L18.7801 15.1065C18.9314 14.9731 19.0967 14.8548 19.2586 14.7345L19.5994 14.4815C20.2779 13.9774 20.7172 13.6486 20.9949 13.3702C21.2587 13.1057 21.2508 13.009 21.2498 12.9825C21.2492 12.9661 21.2619 12.8842 20.991 12.6671C20.6999 12.4338 20.2444 12.1716 19.5301 11.7647L19.2508 11.6056L14.741 10.3565ZM10.8523 5.2618C10.9552 5.64204 11.0581 6.07794 11.1697 6.5577L11.2723 6.9952C11.399 7.53992 11.427 7.6006 11.4529 7.6368C11.4551 7.64006 11.4679 7.65832 11.533 7.70321C11.6153 7.75994 11.7302 7.82547 11.9373 7.94344L12.2127 8.10067L17.7869 9.64461L17.6863 9.212C17.4842 8.34323 17.3494 7.76977 17.2029 7.38582C17.1153 7.15624 17.0525 7.07639 17.0301 7.05379L10.8523 5.2618Z" fill="#1C274C"/>
</svg>
