<svg width="24" height="24" viewBox="0 0 24 24" fill="none" xmlns="http://www.w3.org/2000/svg">
<path d="M12.9407 10.5127C13.1712 10.6547 13.4801 10.6976 14.0978 10.7836C14.7155 10.8695 15.0244 10.9125 15.2811 10.8383C15.6234 10.7394 15.915 10.4989 16.0918 10.1696C16.2244 9.92273 16.2645 9.5919 16.3447 8.93024L16.6892 6.09016C16.7694 5.4285 16.8096 5.09767 16.7403 4.82267C16.6479 4.456 16.4234 4.14364 16.116 3.95431C15.8855 3.81231 15.5766 3.76933 14.9589 3.68338C14.3412 3.59742 14.0323 3.55444 13.7756 3.62863C13.4333 3.72756 13.1417 3.96809 12.9649 4.29732C12.8323 4.54424 12.7492 5.23007 12.6689 5.89173L6.53738 5.03851C6.61763 4.37686 6.70081 3.69102 6.63155 3.41601C6.53919 3.04934 6.31464 2.73698 6.00727 2.54765C5.77675 2.40565 5.46789 2.36268 4.85018 2.27672C4.23246 2.19076 3.9236 2.14778 3.66686 2.22198C3.32454 2.3209 3.03292 2.56143 2.85617 2.89066C2.7236 3.13758 2.68348 3.46841 2.60323 4.13006L2.25877 6.97015C2.17852 7.6318 2.1384 7.96263 2.20767 8.23764C2.30002 8.60431 2.52458 8.91667 2.83194 9.106C3.06246 9.248 3.37132 9.29097 3.98904 9.37693C4.60675 9.46289 4.91561 9.50587 5.17235 9.43167C5.51468 9.33275 5.80629 9.09222 5.98305 8.76299C6.11561 8.51607 6.19879 7.83023 6.27904 7.16858L12.4106 8.0218C12.3303 8.68345 12.2471 9.36929 12.3164 9.6443C12.4088 10.011 12.6333 10.3233 12.9407 10.5127Z" stroke="#1C274C" stroke-width="1.5" stroke-linejoin="round"/>
<path d="M7.04032 20.1324C6.9398 19.7306 7.18107 19.3122 7.57921 19.1979C7.97735 19.0836 8.38159 19.3167 8.48211 19.7186L7.76122 19.9255L7.04032 20.1324ZM8.16493 21.1182L7.55955 21.5755L8.16493 21.1182ZM9.05105 21.6662L8.92756 22.4155V22.4155L9.05105 21.6662ZM11.3307 21.0119L11.7874 21.5947V21.5947L11.3307 21.0119ZM11.8423 20.0627L12.58 20.1345L11.8423 20.0627ZM11.5487 18.4678L10.8278 18.6747C10.7273 18.2729 10.9685 17.8545 11.3667 17.7402L11.5487 18.4678ZM17.5211 16.7537L17.3391 16.0261C17.7372 15.9118 18.1414 16.145 18.242 16.5468L17.5211 16.7537ZM18.0113 18.2922L17.4059 18.7495L18.0113 18.2922ZM18.8974 18.8402L18.7739 19.5895V19.5895L18.8974 18.8402ZM21.1771 18.1859L21.6338 18.7687L21.6338 18.7687L21.1771 18.1859ZM21.6887 17.2367L22.4264 17.3085L21.6887 17.2367ZM20.3858 12.0286L20.9912 11.5713L20.3858 12.0286ZM19.4997 11.4806L19.6232 10.7312L19.6232 10.7312L19.4997 11.4806ZM17.22 12.1348L16.7633 11.5521V11.5521L17.22 12.1348ZM16.7084 13.084L15.9707 13.0122L16.7084 13.084ZM17.0021 14.6789L17.7229 14.472C17.8235 14.8738 17.5822 15.2922 17.1841 15.4065L17.0021 14.6789ZM11.0297 16.393L11.2117 17.1206C10.8135 17.2349 10.4093 17.0018 10.3088 16.6L11.0297 16.393ZM10.5395 14.8546L11.1448 14.3973L10.5395 14.8546ZM9.65334 14.3066L9.77684 13.5572V13.5572L9.65334 14.3066ZM7.37368 14.9608L6.91695 14.378V14.378L7.37368 14.9608ZM7.59981 15.9818C7.5487 16.3977 7.17697 16.7027 6.76953 16.663C6.36209 16.6234 6.07323 16.2541 6.12434 15.8382L6.86208 15.91L7.59981 15.9818ZM7.76122 19.9255L8.48211 19.7186C8.56507 20.0502 8.61905 20.2645 8.67056 20.4256C8.72027 20.5811 8.7526 20.6362 8.77032 20.6609L8.16493 21.1182L7.55955 21.5755C7.41538 21.3742 7.32646 21.1552 7.25509 20.9319C7.18553 20.7143 7.11859 20.4452 7.04032 20.1324L7.76122 19.9255ZM8.16493 21.1182L8.77032 20.6609C8.87728 20.8102 9.02635 20.896 9.17454 20.9168L9.05105 21.6662L8.92756 22.4155C8.3727 22.3373 7.88427 22.0288 7.55955 21.5755L8.16493 21.1182ZM9.05105 21.6662L9.17454 20.9168C9.18798 20.9187 9.23468 20.9234 9.3779 20.8933C9.52863 20.8617 9.72391 20.8061 10.0352 20.7167L10.2172 21.4443L10.3992 22.1719C10.1088 22.2552 9.85287 22.3292 9.63684 22.3746C9.41331 22.4215 9.17776 22.4508 8.92756 22.4155L9.05105 21.6662ZM10.2172 21.4443L10.0352 20.7167C10.3465 20.6274 10.5416 20.5709 10.6869 20.5176C10.825 20.467 10.8632 20.4379 10.874 20.4291L11.3307 21.0119L11.7874 21.5947C11.5872 21.7593 11.3696 21.8601 11.1541 21.9391C10.9458 22.0155 10.6896 22.0886 10.3992 22.1719L10.2172 21.4443ZM11.3307 21.0119L10.874 20.4291C10.9926 20.3316 11.0816 20.1775 11.1046 19.991L11.8423 20.0627L12.58 20.1345C12.5104 20.701 12.2314 21.2298 11.7874 21.5947L11.3307 21.0119ZM11.8423 20.0627L11.1046 19.991C11.1018 20.0134 11.1066 19.9914 11.0955 19.8974C11.0857 19.8141 11.0674 19.7065 11.0407 19.5755C10.9871 19.3122 10.9095 19.0015 10.8278 18.6747L11.5487 18.4678L12.2696 18.2609C12.3491 18.5786 12.4356 18.9241 12.4972 19.2266C12.551 19.4909 12.6151 19.8491 12.58 20.1345L11.8423 20.0627ZM11.5487 18.4678L11.3667 17.7402L17.3391 16.0261L17.5211 16.7537L17.7031 17.4813L11.7307 19.1954L11.5487 18.4678ZM17.5211 16.7537L18.242 16.5468C18.3237 16.8735 18.4016 17.1842 18.478 17.4409C18.5161 17.5687 18.5505 17.6716 18.5808 17.749C18.6151 17.8364 18.6295 17.8528 18.6167 17.8349L18.0113 18.2922L17.4059 18.7495C17.2423 18.5211 17.1306 18.1766 17.0538 17.9188C16.9659 17.6239 16.8796 17.2783 16.8002 16.9606L17.5211 16.7537ZM18.0113 18.2922L18.6167 17.8349C18.7236 17.9842 18.8727 18.07 19.0209 18.0909L18.8974 18.8402L18.7739 19.5895C18.219 19.5113 17.7306 19.2028 17.4059 18.7495L18.0113 18.2922ZM18.8974 18.8402L19.0209 18.0909C19.0343 18.0927 19.081 18.0974 19.2243 18.0673C19.375 18.0357 19.5703 17.9801 19.8816 17.8907L20.0636 18.6183L20.2456 19.3459C19.9552 19.4292 19.6992 19.5032 19.4832 19.5486C19.2597 19.5955 19.0241 19.6248 18.7739 19.5895L18.8974 18.8402ZM20.0636 18.6183L19.8816 17.8907C20.1929 17.8014 20.3879 17.7449 20.5332 17.6916C20.6713 17.641 20.7096 17.6119 20.7203 17.6031L21.1771 18.1859L21.6338 18.7687C21.4336 18.9333 21.2159 19.0341 21.0004 19.1131C20.7922 19.1895 20.536 19.2626 20.2456 19.3459L20.0636 18.6183ZM21.1771 18.1859L20.7203 17.6031C20.8389 17.5056 20.928 17.3516 20.9509 17.165L21.6887 17.2367L22.4264 17.3085C22.3568 17.875 22.0778 18.4038 21.6338 18.7687L21.1771 18.1859ZM21.6887 17.2367L20.9509 17.165C20.9547 17.134 20.957 17.069 20.9275 16.9078C20.8969 16.7406 20.8436 16.5261 20.7606 16.1945L21.4815 15.9876L22.2024 15.7807C22.2807 16.0936 22.3483 16.3625 22.3897 16.5882C22.4321 16.8197 22.4573 17.057 22.4264 17.3085L21.6887 17.2367ZM21.4815 15.9876L20.7606 16.1945L20.0686 13.4282L20.7895 13.2213L21.5104 13.0144L22.2024 15.7807L21.4815 15.9876ZM20.7895 13.2213L20.0686 13.4282C19.9857 13.0965 19.9317 12.8823 19.8802 12.7211C19.8305 12.5656 19.7981 12.5106 19.7804 12.4858L20.3858 12.0286L20.9912 11.5713C21.1354 11.7725 21.2243 11.9916 21.2956 12.2148C21.3652 12.4324 21.4322 12.7015 21.5104 13.0144L20.7895 13.2213ZM20.3858 12.0286L19.7804 12.4858C19.6735 12.3365 19.5244 12.2508 19.3762 12.2299L19.4997 11.4806L19.6232 10.7312C20.178 10.8095 20.6665 11.118 20.9912 11.5713L20.3858 12.0286ZM19.4997 11.4806L19.3762 12.2299C19.3628 12.228 19.3161 12.2233 19.1728 12.2534C19.0221 12.2851 18.8268 12.3407 18.5155 12.43L18.3335 11.7024L18.1515 10.9748C18.4419 10.8915 18.6979 10.8176 18.9139 10.7722C19.1374 10.7252 19.373 10.696 19.6232 10.7312L19.4997 11.4806ZM18.3335 11.7024L18.5155 12.43C18.2042 12.5193 18.0092 12.5758 17.8639 12.6291C17.7258 12.6798 17.6875 12.7088 17.6768 12.7176L17.22 12.1348L16.7633 11.5521C16.9635 11.3875 17.1812 11.2867 17.3967 11.2076C17.6049 11.1312 17.8611 11.0582 18.1515 10.9748L18.3335 11.7024ZM17.22 12.1348L17.6768 12.7176C17.5582 12.8151 17.4691 12.9692 17.4462 13.1558L16.7084 13.084L15.9707 13.0122C16.0403 12.4457 16.3193 11.917 16.7633 11.5521L17.22 12.1348ZM16.7084 13.084L17.4462 13.1558C17.4489 13.1334 17.4441 13.1554 17.4552 13.2493C17.4651 13.3327 17.4833 13.4402 17.51 13.5712C17.5636 13.8345 17.6412 14.1453 17.7229 14.472L17.0021 14.6789L16.2812 14.8858C16.2017 14.5681 16.1151 14.2226 16.0535 13.9201C15.9997 13.6558 15.9356 13.2977 15.9707 13.0122L16.7084 13.084ZM17.0021 14.6789L17.1841 15.4065L11.2117 17.1206L11.0297 16.393L10.8477 15.6655L16.82 13.9513L17.0021 14.6789ZM11.0297 16.393L10.3088 16.6C10.227 16.2732 10.1492 15.9625 10.0727 15.7058C10.0346 15.5781 10.0003 15.4752 9.9699 15.3977C9.93566 15.3104 9.92123 15.2939 9.93408 15.3118L10.5395 14.8546L11.1448 14.3973C11.3085 14.6257 11.4202 14.9702 11.4969 15.2279C11.5848 15.5228 11.6711 15.8684 11.7506 16.1861L11.0297 16.393ZM10.5395 14.8546L9.93408 15.3118C9.82711 15.1625 9.67805 15.0768 9.52985 15.0559L9.65334 14.3066L9.77684 13.5572C10.3317 13.6355 10.8201 13.944 11.1448 14.3973L10.5395 14.8546ZM9.65334 14.3066L9.52985 15.0559C9.51641 15.054 9.46971 15.0493 9.32649 15.0794C9.17577 15.1111 8.98048 15.1666 8.66918 15.256L8.48717 14.5284L8.30517 13.8008C8.59554 13.7175 8.85152 13.6435 9.06755 13.5982C9.29109 13.5512 9.52663 13.5219 9.77684 13.5572L9.65334 14.3066ZM8.48717 14.5284L8.66918 15.256C8.35788 15.3453 8.16282 15.4018 8.01751 15.4551C7.87943 15.5057 7.84117 15.5348 7.83041 15.5436L7.37368 14.9608L6.91695 14.378C7.11716 14.2135 7.33481 14.1127 7.55031 14.0336C7.75859 13.9572 8.01479 13.8842 8.30517 13.8008L8.48717 14.5284ZM7.37368 14.9608L7.83041 15.5436C7.71182 15.6411 7.62275 15.7952 7.59981 15.9818L6.86208 15.91L6.12434 15.8382C6.19397 15.2717 6.47295 14.743 6.91695 14.378L7.37368 14.9608Z" fill="#1C274C"/>
</svg>
