<svg width="24" height="24" viewBox="0 0 24 24" fill="none" xmlns="http://www.w3.org/2000/svg">
<path d="M8.93063 7.65568L6.09054 7.31123C5.4289 7.23098 5.09806 7.19085 4.82305 7.26012C4.45638 7.35247 4.14402 7.57703 3.95469 7.88439C3.8127 8.11491 3.76972 8.42377 3.68376 9.04149C3.59781 9.65921 3.55483 9.96806 3.62902 10.2248C3.72794 10.5671 3.96847 10.8587 4.2977 11.0355C4.54462 11.1681 5.23046 11.2512 5.89212 11.3315L5.0389 17.463C4.37724 17.3828 3.6914 17.2996 3.4164 17.3689C3.04972 17.4612 2.73736 17.6858 2.54804 17.9931C2.40604 18.2237 2.36306 18.5325 2.2771 19.1502C2.19115 19.7679 2.14817 20.0768 2.22236 20.3335C2.32128 20.6759 2.56182 20.9675 2.89104 21.1442C3.13796 21.2768 3.46879 21.3169 4.13045 21.3972L6.97053 21.7416C7.63219 21.8219 7.96302 21.862 8.23802 21.7927C8.6047 21.7004 8.91706 21.4758 9.10638 21.1685C9.24838 20.9379 9.29136 20.6291 9.37732 20.0114C9.46327 19.3937 9.50625 19.0848 9.43206 18.8281C9.33314 18.4857 9.0926 18.1941 8.76338 18.0174C8.51646 17.8848 7.83062 17.8016 7.16896 17.7214L8.02218 11.5898C8.68384 11.6701 9.36968 11.7533 9.64468 11.684C10.0114 11.5916 10.3237 11.3671 10.513 11.0597C10.655 10.8292 10.698 10.5203 10.784 9.90263C10.8699 9.28492 10.9129 8.97605 10.8387 8.71931C10.7398 8.37699 10.4993 8.08538 10.17 7.90862C9.92312 7.77606 9.59227 7.73593 8.93063 7.65568Z" stroke="#1C274C" stroke-width="1.5" stroke-linejoin="round"/>
<path d="M19.9259 16.2391C20.5703 16.0779 20.8926 15.9973 21.1186 15.8354C21.4199 15.6196 21.617 15.3008 21.6665 14.9493C21.7037 14.6856 21.6174 14.3848 21.4447 13.7831C21.272 13.1814 21.1857 12.8806 21.0123 12.6696C20.7811 12.3883 20.4396 12.2043 20.0631 12.158C19.7807 12.1233 19.1127 12.2904 18.4682 12.4516L16.7541 6.47926C17.3985 6.31804 18.0666 6.15093 18.2926 5.98905C18.5939 5.77321 18.791 5.45446 18.8406 5.10293C18.8777 4.83929 18.7914 4.53844 18.6187 3.93676C18.446 3.33509 18.3597 3.03424 18.1863 2.82327C17.9551 2.54198 17.6137 2.35795 17.2371 2.31167C16.9547 2.27696 16.6325 2.35757 15.988 2.51879L13.2216 3.21081C12.5771 3.37203 12.2549 3.45264 12.0289 3.61452C11.7276 3.83036 11.5305 4.14911 11.4809 4.50064C11.4438 4.76429 11.5301 5.06513 11.7028 5.66681C11.8755 6.26849 11.9618 6.56933 12.1352 6.7803C12.3664 7.06159 12.7078 7.24562 13.0844 7.2919C13.3668 7.32661 14.0348 7.1595 14.6793 6.99828L16.3934 12.9707C15.7489 13.1319 15.0809 13.299 14.8549 13.4609C14.5536 13.6767 14.3565 13.9955 14.3069 14.347C14.2698 14.6106 14.3561 14.9115 14.5288 15.5132C14.7015 16.1148 14.7878 16.4157 14.9612 16.6266C15.1924 16.9079 15.5338 17.092 15.9104 17.1383" stroke="#1C274C" stroke-width="1.5" stroke-linecap="round" stroke-linejoin="round"/>
</svg>
