<svg width="24" height="24" viewBox="0 0 24 24" fill="none" xmlns="http://www.w3.org/2000/svg">
<path d="M12 2L11.3142 3.64586C10.1761 6.37726 10.4317 9.49075 12 12M12 12H12.0917C15.4705 12 18.6258 13.6887 20.5 16.5M12 12L11.5697 12.5532C9.63285 15.0435 6.65478 16.5 3.5 16.5M21.9877 11.5L21.2426 10.7426C19.2445 8.74454 16.7228 7.39047 14 6.81401M5.7327 19.7928C8.99597 19.7928 12.2916 18.6283 15 16.7104M7.5 3.06729C6.30741 5.92951 6.00374 9.02101 6.58899 12" stroke="#1C274C" stroke-width="1.5" stroke-linecap="round" stroke-linejoin="round"/>
<path d="M3.33874 6.99805C4.18713 5.52576 5.42255 4.25018 6.99996 3.33946C11.7829 0.578039 17.8988 2.21679 20.6602 6.99972C23.4216 11.7826 21.7829 17.8985 17 20.66C12.217 23.4214 6.10113 21.7826 3.33971 16.9997C2.42899 15.4223 1.99687 13.6999 1.99829 12.0007" stroke="#1C274C" stroke-width="1.5" stroke-linecap="round"/>
</svg>
