<svg width="24" height="24" viewBox="0 0 24 24" fill="none" xmlns="http://www.w3.org/2000/svg">
<path d="M12 11.9996L5.00197 6.33546C4.57285 5.98813 3.93869 6.05182 3.63599 6.5135C3.06678 7.38163 2.62413 8.35389 2.34078 9.41136C0.911364 14.746 4.07719 20.2294 9.41185 21.6588C14.7465 23.0882 20.2299 19.9224 21.6593 14.5877C23.0887 9.25308 19.9229 3.76971 14.5882 2.34029C11.9556 1.63489 9.28684 2.04857 7.0869 3.28972" stroke="#1C274C" stroke-width="1.5" stroke-linecap="round"/>
<path opacity="0.5" d="M7.36914 8.18461C6.51379 9.2216 6 10.5508 6 12C6 15.3137 8.68629 18 12 18C15.3137 18 18 15.3137 18 12C18 8.68629 15.3137 6 12 6C11.337 6 10.6991 6.10754 10.1028 6.30613" stroke="#1C274C" stroke-width="1.5" stroke-linecap="round"/>
</svg>
