<svg width="24" height="24" viewBox="0 0 24 24" fill="none" xmlns="http://www.w3.org/2000/svg">
<path d="M8.9126 15.9336C9.94668 16.1928 11.0951 16.2391 12.2688 16.0337" stroke="#1C274C" stroke-width="1.5" stroke-linecap="round"/>
<path d="M7 3.33782C8.47087 2.48697 10.1786 2 12 2C17.5228 2 22 6.47715 22 12C22 12.6477 21.7004 13.2503 21.2424 13.7083L13.7083 21.2424C13.2503 21.7004 12.6477 22 12 22C6.47715 22 2 17.5228 2 12C2 10.1786 2.48697 8.47087 3.33782 7" stroke="#1C274C" stroke-width="1.5" stroke-linecap="round"/>
<path d="M12 22C12 19.2071 12 17.8107 12.3928 16.688C13.0964 14.6773 14.6773 13.0964 16.688 12.3928C17.8107 12 19.2071 12 22 12" stroke="#1C274C" stroke-width="1.5"/>
<path d="M14.9923 9.64461C15.1353 10.1781 15.0349 10.6685 14.7682 10.7399C14.5014 10.8114 14.1693 10.4369 14.0264 9.90343C13.8835 9.36996 13.9838 8.87956 14.2505 8.80809C14.5173 8.73662 14.8494 9.11114 14.9923 9.64461Z" stroke="#1C274C"/>
<ellipse cx="8.71395" cy="11.3277" rx="0.5" ry="1" transform="rotate(-15 8.71395 11.3277)" stroke="#1C274C"/>
</svg>
