<svg width="24" height="24" viewBox="0 0 24 24" fill="none" xmlns="http://www.w3.org/2000/svg">
<path d="M20.0002 6.90909L18.5456 5.45455L17.0911 4M6.18201 17.8182C4.1737 15.8099 4.1737 12.5538 6.18201 10.5455L10.4648 6.26263C11.2185 5.50893 11.5954 5.13208 12.0239 4.97611C12.4784 4.8107 12.9766 4.8107 13.431 4.97611C13.8595 5.13208 14.2364 5.50893 14.9901 6.26263L17.7376 9.0101C18.4913 9.7638 18.8681 10.1406 19.0241 10.5692C19.1895 11.0236 19.1895 11.5218 19.0241 11.9763C18.8681 12.4048 18.4913 12.7817 17.7376 13.5354L13.4547 17.8182C11.4464 19.8265 8.19032 19.8265 6.18201 17.8182Z" stroke="#1C274C" stroke-width="1.5" stroke-linecap="round"/>
<path d="M17.0911 14.1819L9.81836 6.90918" stroke="#1C274C" stroke-width="1.5" stroke-linecap="round"/>
<path opacity="0.5" d="M6.18182 17.8184L4 20.0002" stroke="#1C274C" stroke-width="1.5" stroke-linecap="round"/>
<path opacity="0.5" d="M16.3633 7.63641L18.5451 5.45459" stroke="#1C274C" stroke-width="1.5" stroke-linecap="round"/>
<path opacity="0.5" d="M14.9093 16.3639L12.0239 13.4785M13.2729 18.0002L11.627 16.3543" stroke="#1C274C" stroke-width="1.5" stroke-linecap="round"/>
</svg>
