<svg width="24" height="24" viewBox="0 0 24 24" fill="none" xmlns="http://www.w3.org/2000/svg">
<path d="M5.04476 3.25C5.47757 3.24995 5.8744 3.24991 6.19721 3.29331C6.5527 3.3411 6.92842 3.45355 7.23744 3.76257C7.54647 4.07159 7.65891 4.44732 7.70671 4.8028C7.70965 4.82469 7.71239 4.84691 7.71495 4.86947C7.74874 5.16758 7.65868 5.46394 7.51814 5.72901C7.43113 5.89312 7.26124 5.99961 7.07549 5.99985L6.92963 6C6.04546 5.99998 5.3158 5.99997 4.72337 6.05301C4.10735 6.10816 3.54349 6.22673 3.02264 6.52292C2.74177 6.68265 2.48257 6.87508 2.25001 7.09526L2.25 5.95526C2.24995 5.52244 2.24991 5.12561 2.29331 4.8028C2.3411 4.44732 2.45355 4.07159 2.76257 3.76257C3.07159 3.45355 3.44732 3.3411 3.8028 3.29331C4.12561 3.24991 4.52244 3.24995 4.95526 3.25H5.04476Z" fill="#1C274C"/>
<path d="M19.0448 3.25C19.4776 3.24995 19.8744 3.24991 20.1972 3.29331C20.5527 3.3411 20.9284 3.45355 21.2374 3.76257C21.5465 4.07159 21.6589 4.44732 21.7067 4.8028C21.7501 5.12559 21.7501 5.52248 21.75 5.95526L21.75 7.09527C21.5174 6.87509 21.2582 6.68266 20.9774 6.52292C20.4565 6.22673 19.8927 6.10816 19.2766 6.05301C18.6842 5.99997 17.9545 5.99998 17.0704 6L16.9171 5.99889C16.733 5.99755 16.5651 5.89147 16.4796 5.72842C16.3407 5.4636 16.2513 5.16813 16.2849 4.87099C16.2875 4.84791 16.2903 4.82518 16.2933 4.8028C16.3411 4.44732 16.4536 4.07159 16.7626 3.76257C17.0716 3.45355 17.4473 3.3411 17.8028 3.29331C18.1256 3.24991 18.5224 3.24995 18.9553 3.25H19.0448Z" fill="#1C274C"/>
<path fill-rule="evenodd" clip-rule="evenodd" d="M13.5098 5C13.7551 5 13.878 4.99975 13.9912 5.0127C14.583 5.08048 15.1142 5.4092 15.4395 5.9082C15.5017 6.00375 15.5572 6.11344 15.667 6.33301C15.7219 6.44285 15.7491 6.49811 15.7803 6.5459C15.9428 6.7953 16.2082 6.95918 16.5039 6.99316C16.5606 6.99966 16.6223 7 16.7451 7H17.0254C18.8707 7 19.7938 7.00042 20.4834 7.39258C20.9524 7.65937 21.3406 8.04765 21.6074 8.5166C21.9996 9.20619 22 10.1293 22 11.9746V14C22 16.8284 21.9998 18.2424 21.1211 19.1211C20.2424 19.9998 18.8284 20 16 20H8C5.17157 20 3.75759 19.9998 2.87891 19.1211C2.00023 18.2424 2 16.8284 2 14V11.9746C2 10.1293 2.00042 9.20619 2.39258 8.5166C2.65937 8.04765 3.04765 7.65937 3.5166 7.39258C4.20619 7.00042 5.12929 7 6.97461 7H7.25488C7.37766 7 7.43942 6.99966 7.49609 6.99316C7.79184 6.95918 8.05715 6.7953 8.21973 6.5459C8.25086 6.49812 8.27809 6.44284 8.33301 6.33301C8.44281 6.11341 8.49829 6.00375 8.56055 5.9082C8.88583 5.4092 9.417 5.08048 10.0088 5.0127C10.122 4.99975 10.2449 5 10.4902 5H13.5098ZM16.5 11.25C16.0858 11.25 15.75 11.5858 15.75 12V12.75H15C14.974 12.75 14.9482 12.7513 14.9229 12.7539C14.5702 12.7899 14.2899 13.0702 14.2539 13.4229C14.2513 13.4482 14.25 13.474 14.25 13.5C14.25 13.526 14.2513 13.5518 14.2539 13.5771C14.2899 13.9298 14.5702 14.2101 14.9229 14.2461L15.75 14.25V15C15.75 15.026 15.7513 15.0518 15.7539 15.0771C15.7925 15.4551 16.1118 15.75 16.5 15.75C16.8882 15.75 17.2075 15.4551 17.2461 15.0771C17.2487 15.0518 17.25 15.026 17.25 15V14.25H18C18.4142 14.25 18.75 13.9142 18.75 13.5C18.75 13.0858 18.4142 12.75 18 12.75H17.25V12C17.25 11.6118 16.9551 11.2925 16.5771 11.2539L16.5 11.25ZM6 12.75C5.58579 12.75 5.25 13.0858 5.25 13.5C5.25 13.9142 5.58579 14.25 6 14.25H9C9.41421 14.25 9.75 13.9142 9.75 13.5C9.75 13.0858 9.41421 12.75 9 12.75H6Z" fill="#1C274C"/>
</svg>
