<svg width="24" height="24" viewBox="0 0 24 24" fill="none" xmlns="http://www.w3.org/2000/svg">
<path d="M11 10.5C11 7.46243 13.4624 5 16.5 5C19.5376 5 22 7.46243 22 10.5C22 13.5376 19.5376 16 16.5 16C13.4624 16 11 13.5376 11 10.5Z" stroke="#1C274C" stroke-width="1.5"/>
<path opacity="0.5" d="M16.5 20V16M16.5 20H19.5M16.5 20H13.5" stroke="#1C274C" stroke-width="1.5" stroke-linecap="round" stroke-linejoin="round"/>
<path d="M8 11V17C8 18.6569 6.65685 20 5 20C3.34315 20 2 18.6569 2 17V11" stroke="#1C274C" stroke-width="1.5" stroke-linecap="round"/>
<path d="M2 11H8" stroke="#1C274C" stroke-width="1.5" stroke-linecap="round"/>
<path opacity="0.5" d="M3 11H7V5.61799C7 4.87461 6.21769 4.39111 5.55279 4.72356L3.55279 5.72356C3.214 5.89295 3 6.23922 3 6.61799V11Z" stroke="#1C274C" stroke-width="1.5"/>
</svg>
