<svg width="24" height="24" viewBox="0 0 24 24" fill="none" xmlns="http://www.w3.org/2000/svg">
<path d="M13 2.5V5C13 7.35702 13 8.53553 13.7322 9.26777C14.4645 10 15.643 10 18 10H22" stroke="#1C274C" stroke-width="1.5" stroke-linejoin="round"/>
<path d="M10.3333 14.571C10.5419 14.506 10.7662 14.4706 11 14.4706C11.2291 14.4706 11.4493 14.5046 11.6543 14.5672M8.33333 15.5758C8.17185 15.4804 7.9882 15.412 7.79066 15.3778C7.69662 15.3615 7.59944 15.3529 7.5 15.3529C6.67157 15.3529 6 15.9455 6 16.6765C6 17.4074 6.67157 18 7.5 18H11C12.1046 18 13 17.2099 13 16.2353C13 15.4629 12.4375 14.8063 11.6543 14.5672M11.6543 14.5672C11.543 13.6855 10.6956 13 9.66667 13C8.5621 13 7.66667 13.7901 7.66667 14.7647C7.66667 14.9803 7.71047 15.1868 7.79066 15.3778" stroke="#1C274C" stroke-width="1.5" stroke-linecap="round"/>
<path d="M2 10V14C2 17.7712 2 19.6569 3.17157 20.8284C4.34315 22 6.22876 22 10 22H14C17.7712 22 19.6569 22 20.8284 20.8284C21.4816 20.1752 21.7706 19.3001 21.8985 18M22 14V13.5629C22 11.8083 22 10.931 21.654 10.1541C21.308 9.3772 20.6559 8.79032 19.3517 7.61654L15.3929 4.05365C14.2651 3.03857 13.7012 2.53104 13.0092 2.26552C12.3173 2 11.5548 2 10.0298 2C6.23869 2 4.34315 2 3.17157 3.17157C2.51839 3.82475 2.22937 4.69989 2.10149 6" stroke="#1C274C" stroke-width="1.5" stroke-linecap="round" stroke-linejoin="round"/>
</svg>
