<svg width="24" height="24" viewBox="0 0 24 24" fill="none" xmlns="http://www.w3.org/2000/svg">
<path d="M13 2.5V5C13 7.35702 13 8.53553 13.7322 9.26777C14.4645 10 15.643 10 18 10H22" stroke="#1C274C" stroke-width="1.5" stroke-linejoin="round"/>
<path d="M5 11.5C5 10.6716 5.67157 10 6.5 10H8V13H6.5C5.67157 13 5 12.3284 5 11.5Z" stroke="#1C274C" stroke-width="1.5"/>
<path d="M5 14.5C5 13.6716 5.67157 13 6.5 13H8V16H6.5C5.67157 16 5 15.3284 5 14.5Z" stroke="#1C274C" stroke-width="1.5"/>
<path d="M5 17.5C5 16.6716 5.67157 16 6.5 16H8V17.5C8 18.3284 7.32843 19 6.5 19C5.67157 19 5 18.3284 5 17.5Z" stroke="#1C274C" stroke-width="1.5"/>
<path d="M8 10H9.5C10.3284 10 11 10.6716 11 11.5C11 12.3284 10.3284 13 9.5 13H8" stroke="#1C274C" stroke-width="1.5"/>
<path d="M11 14.5C11 13.6716 10.3284 13 9.5 13C8.67157 13 8 13.6716 8 14.5C8 15.3284 8.67157 16 9.5 16C10.3284 16 11 15.3284 11 14.5Z" stroke="#1C274C" stroke-width="1.5"/>
<path d="M2 10V14C2 17.7712 2 19.6569 3.17157 20.8284C4.34315 22 6.22876 22 10 22H14C17.7712 22 19.6569 22 20.8284 20.8284C21.4816 20.1752 21.7706 19.3001 21.8985 18M22 14V13.5629C22 11.8083 22 10.931 21.654 10.1541C21.308 9.3772 20.6559 8.79032 19.3517 7.61654L15.3929 4.05365C14.2651 3.03857 13.7012 2.53104 13.0092 2.26552C12.3173 2 11.5548 2 10.0298 2C6.23869 2 4.34315 2 3.17157 3.17157C2.51839 3.82475 2.22937 4.69989 2.10149 6" stroke="#1C274C" stroke-width="1.5" stroke-linecap="round" stroke-linejoin="round"/>
</svg>
