<svg width="24" height="24" viewBox="0 0 24 24" fill="none" xmlns="http://www.w3.org/2000/svg">
<path d="M13 2.5V5C13 7.35702 13 8.53553 13.7322 9.26777C14.4645 10 15.643 10 18 10H22" stroke="#1C274C" stroke-width="1.5" stroke-linejoin="round"/>
<path d="M14.0039 22C17.7764 22 19.6626 22 20.8346 20.8284C21.6433 20.0199 21.894 18.8714 21.9717 16.9978C21.9771 16.8658 21.8306 16.7839 21.7207 16.8571C20.6823 17.5492 19.3295 17.5492 18.291 16.8571C17.5122 16.3381 16.4976 16.3381 15.7188 16.8571C14.6803 17.5492 13.3275 17.5492 12.2891 16.8571C11.5103 16.3381 10.4956 16.3381 9.71681 16.8571C8.67838 17.5492 7.32554 17.5492 6.28712 16.8571C5.50829 16.3381 4.49367 16.3381 3.71485 16.8571L3.08865 17.2745C2.58236 17.6119 2.32921 17.7806 2.21436 18.0728C2.09951 18.3649 2.1591 18.6149 2.27827 19.1149C2.44938 19.8327 2.72571 20.3823 3.17196 20.8284C4.34391 22 6.23015 22 10.0026 22M2 10V11.9397C2 12.1045 2 12.1869 2.00613 12.2421C2.08372 12.9392 2.83648 13.3419 3.45978 13.0198C3.50905 12.9943 3.57765 12.9486 3.71485 12.8571C4.49367 12.3381 5.50829 12.3381 6.28712 12.8571C7.32554 13.5492 8.67838 13.5492 9.71681 12.8571C10.4956 12.3381 11.5103 12.3381 12.2891 12.8571C13.3275 13.5492 14.6803 13.5492 15.7188 12.8571C16.4976 12.3381 17.5122 12.3381 18.291 12.8571C19.3295 13.5492 20.6823 13.5492 21.7207 12.8571C21.8977 12.7392 22.0038 12.5399 21.9999 12.3273C21.9817 11.3457 21.9139 10.723 21.6604 10.1541C21.3143 9.3772 20.662 8.79032 19.3574 7.61654L15.3973 4.05365C14.2691 3.03857 13.705 2.53104 13.0128 2.26552C12.3207 2 11.5579 2 10.0324 2C6.24008 2 4.34391 2 3.17196 3.17157C2.51856 3.82475 2.22945 4.69989 2.10153 6" stroke="#1C274C" stroke-width="1.5" stroke-linecap="round" stroke-linejoin="round"/>
</svg>
