<svg width="24" height="24" viewBox="0 0 24 24" fill="none" xmlns="http://www.w3.org/2000/svg">
<path d="M2.00299 11.7155C2.04033 9.87326 2.059 8.95215 2.67093 8.16363C2.78262 8.0197 2.9465 7.8487 3.08385 7.73274C3.83639 7.09741 4.82995 7.09741 6.81706 7.09741C7.527 7.09741 7.88197 7.09741 8.22035 7.00452C8.29067 6.98522 8.36024 6.96296 8.4289 6.93781C8.75936 6.81674 9.05574 6.60837 9.64851 6.19161C11.9872 4.54738 13.1565 3.72527 14.138 4.08241C14.3261 4.15088 14.5083 4.24972 14.671 4.37162C15.5194 5.00744 15.5839 6.48675 15.7128 9.44537C15.7606 10.5409 15.7931 11.4785 15.7931 12C15.7931 12.5215 15.7606 13.4591 15.7128 14.5546C15.5839 17.5132 15.5194 18.9926 14.671 19.6284C14.5083 19.7503 14.3261 19.8491 14.138 19.9176C13.1565 20.2747 11.9872 19.4526 9.64851 17.8084C9.05574 17.3916 8.75936 17.1833 8.4289 17.0622C8.36024 17.037 8.29067 17.0148 8.22035 16.9955C7.88197 16.9026 7.52701 16.9026 6.81706 16.9026C4.82995 16.9026 3.83639 16.9026 3.08385 16.2673C2.9465 16.1513 2.78262 15.9803 2.67093 15.8364C2.059 15.0478 2.04033 14.1267 2.00299 12.2845C2.00103 12.1878 2 12.0928 2 12C2 11.9072 2.00103 11.8122 2.00299 11.7155Z" fill="#1C274C"/>
<path fill-rule="evenodd" clip-rule="evenodd" d="M17.7572 8.41592C18.0902 8.21868 18.51 8.34659 18.695 8.70163L18.0921 9.05876C18.695 8.70163 18.695 8.70163 18.695 8.70163L18.6957 8.70291L18.6964 8.70428L18.6979 8.70727L18.7014 8.71425L18.7103 8.73224C18.717 8.74604 18.7251 8.76345 18.7345 8.78454C18.7534 8.82672 18.7772 8.88359 18.8043 8.95571C18.8584 9.1 18.9252 9.30487 18.9901 9.57473C19.12 10.1149 19.2415 10.9118 19.2415 12.0003C19.2415 13.0888 19.12 13.8857 18.9901 14.4259C18.9252 14.6958 18.8584 14.9006 18.8043 15.0449C18.7772 15.117 18.7534 15.1739 18.7345 15.2161C18.7251 15.2372 18.717 15.2546 18.7103 15.2684L18.7014 15.2864L18.6979 15.2934L18.6964 15.2963L18.6957 15.2977C18.6957 15.2977 18.695 15.299 18.0921 14.9419L18.695 15.299C18.51 15.654 18.0902 15.782 17.7572 15.5847C17.4271 15.3891 17.3063 14.9474 17.4846 14.5938L17.4892 14.5838C17.4955 14.5696 17.5076 14.5415 17.5236 14.4987C17.5557 14.4132 17.6039 14.2687 17.654 14.0606C17.754 13.6448 17.8622 12.9709 17.8622 12.0003C17.8622 11.0297 17.754 10.3558 17.654 9.94003C17.6039 9.73189 17.5557 9.58745 17.5236 9.50194C17.5076 9.45915 17.4955 9.43099 17.4892 9.41687L17.4846 9.40684C17.3063 9.05328 17.4271 8.61149 17.7572 8.41592Z" fill="#1C274C"/>
<path d="M20.5049 12.0001C20.5049 9.99167 20.1465 8.58305 19.8047 7.69442C19.6335 7.2492 19.4651 6.93143 19.3457 6.7325C19.2861 6.6332 19.2388 6.56321 19.209 6.52156L19.1787 6.48055L19.1328 6.41902C18.9201 6.10395 18.9762 5.67259 19.2744 5.42391C19.5926 5.15879 20.0659 5.20158 20.3311 5.51961L19.8369 5.93172C20.3311 5.51997 20.3318 5.52027 20.3321 5.52059L20.3369 5.52645C20.3391 5.52903 20.341 5.53276 20.3438 5.53621C20.3495 5.54328 20.357 5.55189 20.3653 5.56258C20.3819 5.58412 20.4037 5.61303 20.4297 5.64949C20.482 5.72263 20.5519 5.82617 20.6328 5.96102C20.7947 6.23083 21.0014 6.62664 21.2051 7.15633C21.6133 8.2177 22.0049 9.80885 22.0049 12.0001C22.0049 14.1913 21.6133 15.7825 21.2051 16.8438C21.0014 17.3735 20.7947 17.7693 20.6328 18.0391C20.5519 18.174 20.482 18.2775 20.4297 18.3507C20.4037 18.3871 20.3819 18.416 20.3653 18.4376C20.357 18.4483 20.3495 18.4569 20.3438 18.4639C20.341 18.4674 20.3391 18.4711 20.3369 18.4737L20.3321 18.4786C20.3318 18.4789 20.3311 18.4802 19.7549 18.0001L20.3311 18.4805C20.0659 18.7986 19.5926 18.8414 19.2744 18.5763C18.9762 18.3276 18.9201 17.8962 19.1328 17.5811L19.1748 17.5255C19.1748 17.5255 19.1751 17.5244 19.1758 17.5235L19.1778 17.5216L19.1787 17.5196C19.1841 17.5126 19.1944 17.499 19.209 17.4786C19.2388 17.4369 19.2861 17.367 19.3457 17.2677C19.4651 17.0687 19.6335 16.751 19.8047 16.3057C20.1465 15.4171 20.5049 14.0085 20.5049 12.0001Z" fill="#1C274C"/>
</svg>
