<svg width="24" height="24" viewBox="0 0 24 24" fill="none" xmlns="http://www.w3.org/2000/svg">
<path opacity="0.5" d="M6.76196 17.6471H14.381C14.381 14.7882 16.7262 12.4706 19.6191 12.4706L18.615 6.51663C18.4642 5.62255 18.3888 5.1755 18.163 4.84003C17.964 4.54431 17.6845 4.31026 17.3566 4.1649C16.9846 4 16.526 4 15.6088 4H14.381" stroke="#1C274C" stroke-width="1.5" stroke-linejoin="round"/>
<path d="M6.7619 17.6469C6.7619 18.9464 5.69592 19.9998 4.38095 19.9998C3.06599 19.9998 2 18.9464 2 17.6469C2 16.3474 3.06599 15.2939 4.38095 15.2939C5.69592 15.2939 6.7619 16.3474 6.7619 17.6469Z" stroke="#1C274C" stroke-width="1.5"/>
<path d="M21.9999 17.6469C21.9999 18.9464 20.934 19.9998 19.619 19.9998C18.304 19.9998 17.238 18.9464 17.238 17.6469C17.238 16.3474 18.304 15.2939 19.619 15.2939C20.934 15.2939 21.9999 16.3474 21.9999 17.6469Z" stroke="#1C274C" stroke-width="1.5"/>
</svg>
