<svg width="24" height="24" viewBox="0 0 24 24" fill="none" xmlns="http://www.w3.org/2000/svg">
<path d="M14.8715 9.12853C14.4981 7.89669 13.3538 7 12 7C10.3431 7 9 8.34315 9 10C9 11.3538 9.8967 12.4981 11.1285 12.8715" stroke="#1C274C" stroke-width="1.5" stroke-linecap="round"/>
<path d="M16 22.75C16.4142 22.75 16.75 22.4142 16.75 22C16.75 21.5858 16.4142 21.25 16 21.25V22V22.75ZM8 21.25C7.58579 21.25 7.25 21.5858 7.25 22C7.25 22.4142 7.58579 22.75 8 22.75V22V21.25ZM12.75 18.0031C12.75 17.5889 12.4142 17.2531 12 17.2531C11.5858 17.2531 11.25 17.5889 11.25 18.0031H12H12.75ZM11.25 22C11.25 22.4142 11.5858 22.75 12 22.75C12.4142 22.75 12.75 22.4142 12.75 22H12H11.25ZM9.87367 16.9336C9.47762 16.8123 9.05822 17.035 8.93693 17.4311C8.81564 17.8271 9.03837 18.2465 9.43443 18.3678L9.65405 17.6507L9.87367 16.9336ZM20.3676 7.43468C20.2463 7.03862 19.8269 6.81588 19.4308 6.93717C19.0348 7.05847 18.812 7.47786 18.9333 7.87392L19.6505 7.6543L20.3676 7.43468ZM16 22V21.25H8V22V22.75H16V22ZM12 18.0031H11.25V22H12H12.75V18.0031H12ZM9.65405 17.6507L9.43443 18.3678C10.2467 18.6166 11.1084 18.7502 11.9999 18.7502V18.0002V17.2502C11.2589 17.2502 10.5452 17.1392 9.87367 16.9336L9.65405 17.6507ZM11.9999 18.0002V18.7502C16.8324 18.7502 20.7499 14.8326 20.7499 10.0002H19.9999H19.2499C19.2499 14.0042 16.004 17.2502 11.9999 17.2502V18.0002ZM19.9999 10.0002H20.7499C20.7499 9.10862 20.6163 8.24691 20.3676 7.43468L19.6505 7.6543L18.9333 7.87392C19.139 8.5454 19.2499 9.25914 19.2499 10.0002H19.9999Z" fill="#1C274C"/>
<path d="M22 2L2 22" stroke="#1C274C" stroke-width="1.5" stroke-linecap="round"/>
<path d="M12 4.50098H12.0001" stroke="#1C274C" stroke-width="1.5" stroke-linecap="round" stroke-linejoin="round"/>
<path d="M11.9354 2.00027L11.9415 1.25029L11.9354 2.00027ZM17.911 5.90679C18.1492 6.24564 18.6171 6.32721 18.9559 6.08899C19.2948 5.85076 19.3763 5.38295 19.1381 5.04409L18.5246 5.47544L17.911 5.90679ZM4.00027 9.93545L3.25029 9.9415L4.00027 9.93545ZM11.9354 2.00027L11.9294 2.75024C14.3908 2.7701 16.5802 4.0139 17.911 5.90679L18.5246 5.47544L19.1381 5.04409C17.5433 2.7757 14.9116 1.27426 11.9415 1.25029L11.9354 2.00027ZM4.00027 9.93545L4.75024 9.92939C4.71797 5.9302 7.9302 2.71797 11.9294 2.75024L11.9354 2.00027L11.9415 1.25029C7.10443 1.21126 3.21126 5.10443 3.25029 9.9415L4.00027 9.93545ZM7.47545 16.5246L7.90679 15.911C6.0139 14.5802 4.7701 12.3908 4.75024 9.92939L4.00027 9.93545L3.25029 9.9415C3.27426 12.9116 4.77571 15.5434 7.0441 17.1381L7.47545 16.5246Z" fill="#1C274C"/>
</svg>
