<svg width="24" height="24" viewBox="0 0 24 24" fill="none" xmlns="http://www.w3.org/2000/svg">
<path d="M17.5468 2H18.1157C19.9468 2 20.8624 2 21.4312 2.56715C22.0001 3.13431 22.0001 4.04713 22.0001 5.87277V6.43993V6.43996C22.0001 7.62719 22.0001 8.22081 21.7783 8.75458C21.5566 9.28836 21.1356 9.70811 20.2935 10.5476L14.4467 16.3769C13.438 17.3826 12.8222 17.9966 12.2189 18.2188C12.0478 18.2818 11.8777 18.3133 11.7 18.3133C10.8955 18.3133 10.2481 17.6679 8.95326 16.3769L7.57991 15.0077C6.2851 13.7168 5.6377 13.0713 5.6377 12.2692C5.6377 12.0767 5.67502 11.8931 5.74966 11.7075C5.98591 11.12 6.59599 10.5117 7.5799 9.53079L7.57991 9.53078L13.4268 3.70146L13.4268 3.70146C14.2688 2.86195 14.6898 2.4422 15.2252 2.2211C15.7606 2 16.356 2 17.5468 2Z" stroke="#1C274C" stroke-width="1.5"/>
<path opacity="0.5" d="M10.3255 6.79171L9.69627 6.38673C8.43405 5.57435 7.80295 5.16816 7.12664 5.06822C6.53023 4.98008 5.91185 5.05911 5.33941 5.29662C4.69028 5.56595 3.34539 6.9068 2.22514 8.02365C1.83482 8.41279 1.97153 9.07315 2.48449 9.27641L2.86314 9.42645C2.92498 9.45095 2.95589 9.4632 2.98636 9.47575C3.55641 9.71062 4.07636 10.0516 4.51839 10.4805C4.54201 10.5034 4.56554 10.5269 4.61259 10.5738L5.57332 11.5317L5.74956 11.7079M17.1943 13.6399L17.6005 14.2672C18.4153 15.5257 18.8227 16.1549 18.923 16.8292C19.0114 17.4238 18.9321 18.0403 18.6939 18.611C18.4237 19.2582 17.0789 20.5991 15.9586 21.716L15.8746 21.7997C15.5272 22.1461 14.9291 22.0267 14.749 21.5751C14.5279 21.0203 14.4173 20.7429 14.2748 20.4832C14.1483 20.2525 14.0032 20.0325 13.8408 19.8253C13.658 19.5921 13.4463 19.381 13.0229 18.9589L12.5 18.5004L12.2188 18.2192" stroke="#1C274C" stroke-width="1.5" stroke-linecap="round" stroke-linejoin="round"/>
<path opacity="0.5" d="M8.2666 15.6927L10.3266 13.6389M17.1934 9.5312C16.4349 10.2874 15.2052 10.2874 14.4467 9.5312C13.6882 8.775 13.6882 7.54895 14.4467 6.79274C15.2052 6.03653 16.4349 6.03653 17.1934 6.79274C17.9519 7.54895 17.9519 8.775 17.1934 9.5312Z" stroke="#1C274C" stroke-width="1.5" stroke-linecap="round"/>
</svg>
