<svg width="24" height="24" viewBox="0 0 24 24" fill="none" xmlns="http://www.w3.org/2000/svg">
<path d="M18.1257 2H18.6207C20.2137 2 21.0103 2 21.5052 2.49282C22.0001 2.98564 22.0001 3.77882 22.0001 5.36519L22.0001 5.85801V5.85804C22.0001 6.88966 22.0001 7.40548 21.8071 7.86929C21.6142 8.33311 21.2479 8.69785 20.5154 9.42732L20.5154 9.42733L15.4286 14.4926C14.5511 15.3665 14.0153 15.9 13.4905 16.0931C13.3416 16.1478 13.1937 16.1752 13.039 16.1752C12.3391 16.1752 11.7759 15.6144 10.6494 14.4926L9.4546 13.3029C8.32813 12.1811 7.76489 11.6203 7.76489 10.9233C7.76489 10.756 7.79736 10.5965 7.8623 10.4352C8.06783 9.92469 8.5986 9.39616 9.4546 8.54376L9.4546 8.54376L14.5413 3.47846L14.5413 3.47845C15.2739 2.74898 15.6402 2.38424 16.106 2.19212C16.5717 2 17.0897 2 18.1257 2Z" stroke="#1C274C" stroke-width="1.5" stroke-linecap="round"/>
<path opacity="0.5" d="M11.8432 6.16377L11.2958 5.81187C10.1977 5.10597 9.64862 4.75301 9.06024 4.66617C8.54137 4.58958 8.00338 4.65825 7.50536 4.86464C6.94062 5.09867 5.77058 6.26378 4.79597 7.23425C4.45639 7.57239 4.57533 8.1462 5.0216 8.32282L5.35102 8.45319C5.40482 8.47448 5.43172 8.48512 5.45822 8.49603C5.95416 8.70011 6.40651 8.99642 6.79108 9.3691C6.81163 9.38902 6.8321 9.4094 6.87303 9.45016L7.70886 10.2825L7.86219 10.4356M17.819 12.1144L18.1724 12.6595C18.8813 13.753 19.2358 14.2998 19.323 14.8857C19.3999 15.4024 19.3309 15.9381 19.1237 16.434C18.8886 16.9964 17.7186 18.1615 16.744 19.132L16.6709 19.2048C16.3687 19.5058 15.8483 19.402 15.6917 19.0096C15.4993 18.5275 15.4031 18.2864 15.2791 18.0608C15.1691 17.8603 15.0428 17.6692 14.9015 17.4891C14.7425 17.2865 14.5583 17.1031 14.1899 16.7362L13.735 16.3379L13.4904 16.0935" stroke="#1C274C" stroke-width="1.5" stroke-linecap="round" stroke-linejoin="round"/>
<path d="M5.5482 13L3.85646 14.6897C3.43177 15.1139 2.74321 15.1139 2.31852 14.6897C1.89383 14.2655 1.89383 13.5778 2.31852 13.1536L2.47231 13M11.0757 18.5696L9.38395 20.2593C8.95926 20.6835 8.95926 21.3712 9.38395 21.7954C9.80864 22.2195 10.4972 22.2195 10.9219 21.7954L11.0757 21.6418M6.93603 17.1588L5.22645 18.8308" stroke="#1C274C" stroke-width="1.5" stroke-linecap="round"/>
<path opacity="0.5" d="M10.1026 16.6551L8.00015 18.7576M7.32686 13.8828L5.20996 15.9997" stroke="#1C274C" stroke-width="1.5" stroke-linecap="round"/>
<path opacity="0.5" d="M10.0518 13.8982L11.844 12.1136M17.818 8.54424C17.1581 9.20134 16.0883 9.20134 15.4284 8.54424C14.7685 7.88715 14.7685 6.82179 15.4284 6.1647C16.0883 5.5076 17.1581 5.5076 17.818 6.1647C18.4779 6.82179 18.4779 7.88715 17.818 8.54424Z" stroke="#1C274C" stroke-width="1.5" stroke-linecap="round"/>
</svg>
