<svg width="24" height="24" viewBox="0 0 24 24" fill="none" xmlns="http://www.w3.org/2000/svg">
<path d="M19.1222 18.4439L18.4439 19.1222C16.5254 21.0407 15.5661 22 14.3741 22C13.182 22 12.2228 21.0407 10.3042 19.1222L4.8778 13.6958C2.95927 11.7772 2 10.818 2 9.62593C2 8.43391 2.95927 7.47464 4.8778 5.55611L5.55611 4.8778C7.47464 2.95927 8.43391 2 9.62593 2C10.818 2 11.7772 2.95927 13.6958 4.8778L19.1222 10.3042C21.0407 12.2228 22 13.182 22 14.3741C22 15.5661 21.0407 16.5254 19.1222 18.4439L19.1222 18.4439Z" stroke="#1C274C" stroke-width="1.5"/>
<path opacity="0.5" d="M8.94768 5.55664L5.55615 8.94816M16.7482 14.714C17.3102 15.2759 17.3102 16.187 16.7482 16.7489C16.1863 17.3108 15.2753 17.3108 14.7133 16.7489C14.1514 16.187 14.1514 15.2759 14.7133 14.714C15.2753 14.152 16.1863 14.152 16.7482 14.714Z" stroke="#1C274C" stroke-width="1.5"/>
<path opacity="0.5" d="M20.5 6.98598L22 8C22 4.98532 19.8377 2.48275 17 2" stroke="#1C274C" stroke-width="1.5" stroke-linecap="round" stroke-linejoin="round"/>
<path d="M3.5 17.014L2 16C2 19.0147 4.16229 21.5172 7 22" stroke="#1C274C" stroke-width="1.5" stroke-linecap="round" stroke-linejoin="round"/>
</svg>
