<svg width="24" height="24" viewBox="0 0 24 24" fill="none" xmlns="http://www.w3.org/2000/svg">
<path d="M17.2022 17.4864C15.9287 18.0707 13.8855 18.75 11.8191 18.75C10.415 18.75 9.33664 18.4232 8.47063 18.0619C8.13743 17.9229 7.82818 17.7752 7.55904 17.6467C7.48725 17.6124 7.41827 17.5795 7.3525 17.5484C7.02421 17.3936 6.77658 17.2868 6.55902 17.2272C5.54505 16.9497 4.53425 16.829 3.77052 16.7788C3.39043 16.7538 3.07579 16.7466 2.85802 16.7455C2.74923 16.7449 2.66488 16.746 2.60893 16.747C2.58096 16.7476 2.56011 16.7482 2.54688 16.7486L2.53281 16.749L2.53056 16.7491L2.48535 16.751C3.60703 19.814 6.54814 22 9.9998 22C13.1683 22 15.9066 20.158 17.2022 17.4864Z" fill="#1C274C"/>
<path d="M3.043 10.0472L3.49182 10.4391L3.49292 10.44L3.50559 10.4507C3.51828 10.4612 3.53939 10.4785 3.56867 10.5015C3.62725 10.5476 3.71829 10.6167 3.83972 10.7011C4.08289 10.8703 4.44584 11.0998 4.91196 11.3303C5.84579 11.792 7.1777 12.25 8.78427 12.25C9.84052 12.25 10.6461 11.9906 11.328 11.6852C11.6007 11.563 11.8454 11.4377 12.0919 11.3114C12.1636 11.2747 12.2355 11.2378 12.3082 11.201C12.6142 11.0461 12.9483 10.8842 13.2884 10.7843C14.3503 10.4722 15.2769 10.3399 15.9422 10.2856C16.2752 10.2584 16.5438 10.2508 16.7327 10.2501C16.8271 10.2497 16.9017 10.2511 16.9545 10.2527C16.9809 10.2535 17.0019 10.2543 17.0172 10.2551L17.0358 10.256L17.0419 10.2563L17.0441 10.2565L17.0454 10.2565L17.0726 10.2582C15.7298 7.72533 13.0663 6 9.9998 6C7.01925 6 4.4194 7.62997 3.043 10.0472Z" fill="#1C274C"/>
<path opacity="0.5" d="M17.8457 15.571C17.9469 15.0629 18 14.5374 18 13.9995C18 13.2362 17.8931 12.4979 17.6935 11.7987L16.9557 11.7533L16.9546 11.7533L16.9482 11.753C16.9406 11.7526 16.9276 11.7521 16.9093 11.7515C16.8727 11.7504 16.8151 11.7493 16.7384 11.7496C16.5849 11.7501 16.3552 11.7564 16.0643 11.7802C15.4818 11.8277 14.6584 11.9447 13.7114 12.2229C13.5171 12.28 13.2923 12.3837 12.9861 12.5387C12.9253 12.5695 12.8615 12.6022 12.7949 12.6363C12.5441 12.7649 12.2537 12.9138 11.9413 13.0537C11.1281 13.4179 10.1104 13.7495 8.78446 13.7495C6.89102 13.7495 5.33071 13.2101 4.24731 12.6744C3.70481 12.4061 3.27789 12.1369 2.98336 11.932C2.83593 11.8295 2.72115 11.7427 2.64113 11.6797C2.6011 11.6482 2.56972 11.6226 2.54724 11.6039L2.52021 11.5812L2.51175 11.574L2.50879 11.5714L2.50764 11.5704C2.50764 11.5704 2.50669 11.5696 2.99213 11.0137L2.50669 11.5696L2.40466 11.4805C2.14212 12.2725 2 13.1194 2 13.9995C2 14.4302 2.03403 14.8529 2.09954 15.2651L2.46925 15.2499L2.5 15.9993C2.46925 15.2499 2.46925 15.2499 2.46925 15.2499L2.47058 15.2498L2.47268 15.2498L2.47917 15.2495L2.50116 15.2488C2.51975 15.2482 2.54614 15.2475 2.57983 15.2469C2.64718 15.2455 2.7438 15.2444 2.86564 15.245C3.10913 15.2462 3.45444 15.2543 3.86909 15.2816C4.69483 15.3358 5.81265 15.4672 6.95524 15.78C7.31143 15.8775 7.66377 16.0362 7.99263 16.1913C8.06997 16.2278 8.14661 16.2644 8.22325 16.301C8.48817 16.4274 8.75347 16.554 9.04839 16.6771C9.78723 16.9853 10.6661 17.2495 11.8193 17.2495C13.9606 17.2495 16.1505 16.385 17.139 15.8421L17.7963 15.4811L17.8457 15.571Z" fill="#1C274C"/>
<path opacity="0.5" d="M20.2238 3.51442C20.5502 3.42367 20.7724 3.41803 20.8301 3.51791C20.8877 3.6178 20.7717 3.80742 20.53 4.04469C20.882 4.94909 20.5314 5.99973 19.665 6.49996C18.7986 7.0002 17.7134 6.77846 17.1062 6.0214C16.7798 6.11215 16.5576 6.1178 16.4999 6.01791C16.4423 5.91803 16.5583 5.72841 16.8 5.49114C16.448 4.58673 16.7986 3.5361 17.665 3.03586C18.5314 2.53563 19.6166 2.75737 20.2238 3.51442Z" fill="#1C274C"/>
<path d="M20.5297 4.04491C20.4931 3.95081 20.4489 3.85829 20.3968 3.76814C20.3448 3.67799 20.2868 3.59342 20.2236 3.51465C19.7686 3.64117 19.1111 3.93312 18.4148 4.33513C17.7185 4.73714 17.1369 5.16056 16.7998 5.49136C16.8364 5.58547 16.8807 5.67799 16.9327 5.76814C16.9848 5.85829 17.0428 5.94286 17.106 6.02163C17.561 5.89511 18.2185 5.60316 18.9148 5.20115C19.6111 4.79914 20.1926 4.37571 20.5297 4.04491Z" fill="#1C274C"/>
</svg>
