<svg width="24" height="24" viewBox="0 0 24 24" fill="none" xmlns="http://www.w3.org/2000/svg">
<path d="M12 2C17.5228 2 22 6.47715 22 12C22 17.5228 17.5228 22 12 22C6.47715 22 2 17.5228 2 12C2 6.47715 6.47715 2 12 2ZM12 2L11.3142 3.64586C10.1761 6.37726 10.4317 9.49075 12 12M12 12H12.0917C15.4705 12 18.6258 13.6887 20.5 16.5M12 12L11.5697 12.5532C9.63285 15.0435 6.65478 16.5 3.5 16.5" stroke="#1C274C" stroke-width="1.5" stroke-linecap="round" stroke-linejoin="round"/>
<path opacity="0.5" d="M21.9877 11.5001L21.2426 10.7427C19.2445 8.74464 16.7228 7.39056 14 6.8141M5.73267 19.7929C8.99594 19.7929 12.2916 18.6284 15 16.7105M7.49997 3.06738C6.30738 5.9296 6.00371 9.02111 6.58896 12.0001" stroke="#1C274C" stroke-width="1.5" stroke-linecap="round" stroke-linejoin="round"/>
</svg>
