<svg width="24" height="24" viewBox="0 0 24 24" fill="none" xmlns="http://www.w3.org/2000/svg">
<path d="M2 17H5.60286C7.26213 17 8.09177 17 8.77953 16.6106C9.46728 16.2212 9.89413 15.5098 10.7478 14.087L13.2522 9.91303C14.1059 8.49021 14.5327 7.7788 15.2205 7.3894C15.9082 7 16.7379 7 18.3971 7H22M20 5L22 7L20 9" stroke="#1C274C" stroke-width="1.5" stroke-linecap="round" stroke-linejoin="round"/>
<path opacity="0.5" d="M2 7H5.60286C7.26213 7 8.09177 7 8.77953 7.3894C9.46728 7.7788 9.89413 8.49021 10.7478 9.91303L13.2522 14.087C14.1059 15.5098 14.5327 16.2212 15.2205 16.6106C15.9082 17 16.7379 17 18.3971 17H22M20 19L22 17L20 15" stroke="#1C274C" stroke-width="1.5" stroke-linecap="round" stroke-linejoin="round"/>
</svg>
