<svg width="24" height="24" viewBox="0 0 24 24" fill="none" xmlns="http://www.w3.org/2000/svg">
<path opacity="0.5" d="M9.5 15.375H8.75V15.5H9.5H10.25V15.375H9.5ZM14.5 15.5H15.25V15.375H14.5H13.75V15.5H14.5ZM13.625 14.5V13.75H10.375V14.5V15.25H13.625V14.5ZM14.5 15.375H15.25C15.25 14.4775 14.5225 13.75 13.625 13.75V14.5V15.25C13.694 15.25 13.75 15.306 13.75 15.375H14.5ZM12 18V18.75C13.7949 18.75 15.25 17.2949 15.25 15.5H14.5H13.75C13.75 16.4665 12.9665 17.25 12 17.25V18ZM9.5 15.5H8.75C8.75 17.2949 10.2051 18.75 12 18.75V18V17.25C11.0335 17.25 10.25 16.4665 10.25 15.5H9.5ZM9.5 15.375H10.25C10.25 15.306 10.306 15.25 10.375 15.25V14.5V13.75C9.47754 13.75 8.75 14.4775 8.75 15.375H9.5ZM10.5 2V2.75H11V2V1.25H10.5V2ZM12 3H11.25V3.5H12H12.75V3H12ZM11 4.5V3.75H10.5V4.5V5.25H11V4.5ZM9.5 3.5H10.25V3H9.5H8.75V3.5H9.5ZM10.5 4.5V3.75C10.3794 3.75 10.2865 3.74995 10.2073 3.74795C10.1276 3.74594 10.0803 3.74228 10.0513 3.73838C10.0228 3.73455 10.0324 3.73299 10.0607 3.74462C10.0949 3.75872 10.1379 3.78438 10.1768 3.82322L9.64645 4.35355L9.11612 4.88388C9.35192 5.11968 9.6321 5.19552 9.85143 5.22501C10.0492 5.25159 10.2855 5.25 10.5 5.25V4.5ZM9.5 3.5H8.75C8.75 3.7145 8.74841 3.95082 8.77499 4.14857C8.80448 4.36789 8.88032 4.64808 9.11612 4.88388L9.64645 4.35355L10.1768 3.82322C10.2156 3.86207 10.2413 3.90508 10.2554 3.93934C10.267 3.96762 10.2654 3.97718 10.2616 3.9487C10.2577 3.91974 10.2541 3.87238 10.252 3.79273C10.25 3.71346 10.25 3.62064 10.25 3.5H9.5ZM12 3.5H11.25C11.25 3.62064 11.25 3.71346 11.248 3.79273C11.2459 3.87238 11.2423 3.91974 11.2384 3.9487C11.2346 3.97718 11.233 3.96762 11.2446 3.93934C11.2587 3.90508 11.2844 3.86207 11.3232 3.82322L11.8536 4.35355L12.3839 4.88388C12.6197 4.64808 12.6955 4.3679 12.725 4.14857C12.7516 3.95082 12.75 3.7145 12.75 3.5H12ZM11 4.5V5.25C11.2145 5.25 11.4508 5.25159 11.6486 5.22501C11.8679 5.19552 12.1481 5.11968 12.3839 4.88388L11.8536 4.35355L11.3232 3.82322C11.3621 3.78438 11.4051 3.75872 11.4393 3.74462C11.4676 3.73299 11.4772 3.73455 11.4487 3.73838C11.4197 3.74228 11.3724 3.74594 11.2927 3.74795C11.2135 3.74995 11.1206 3.75 11 3.75V4.5ZM11 2V2.75C11.1206 2.75 11.2135 2.75005 11.2927 2.75205C11.3724 2.75406 11.4197 2.75772 11.4487 2.76162C11.4772 2.76545 11.4676 2.76701 11.4393 2.75538C11.4051 2.74128 11.3621 2.71562 11.3232 2.67678L11.8536 2.14645L12.3839 1.61612C12.1481 1.38032 11.8679 1.30448 11.6486 1.27499C11.4508 1.24841 11.2145 1.25 11 1.25V2ZM12 3H12.75C12.75 2.7855 12.7516 2.54918 12.725 2.35143C12.6955 2.1321 12.6197 1.85192 12.3839 1.61612L11.8536 2.14645L11.3232 2.67678C11.2844 2.63793 11.2587 2.59492 11.2446 2.56066C11.233 2.53238 11.2346 2.52282 11.2384 2.5513C11.2423 2.58026 11.2459 2.62762 11.248 2.70727C11.25 2.78654 11.25 2.87936 11.25 3H12ZM10.5 2V1.25C10.2855 1.25 10.0492 1.24841 9.85143 1.27499C9.63211 1.30448 9.35192 1.38032 9.11612 1.61612L9.64645 2.14645L10.1768 2.67678C10.1379 2.71562 10.0949 2.74128 10.0607 2.75538C10.0324 2.76701 10.0228 2.76545 10.0513 2.76162C10.0803 2.75772 10.1276 2.75406 10.2073 2.75205C10.2865 2.75005 10.3794 2.75 10.5 2.75V2ZM9.5 3H10.25C10.25 2.87936 10.25 2.78654 10.252 2.70727C10.2541 2.62762 10.2577 2.58026 10.2616 2.5513C10.2654 2.52282 10.267 2.53238 10.2554 2.56066C10.2413 2.59492 10.2156 2.63793 10.1768 2.67678L9.64645 2.14645L9.11612 1.61612C8.88032 1.85192 8.80448 2.1321 8.77499 2.35143C8.74841 2.54918 8.75 2.7855 8.75 3H9.5ZM10.5 7V7.75H11V7V6.25H10.5V7ZM12 8H11.25V8.5H12H12.75V8H12ZM11 9.5V8.75H10.5V9.5V10.25H11V9.5ZM9.5 8.5H10.25V8H9.5H8.75V8.5H9.5ZM10.5 9.5V8.75C10.3794 8.75 10.2865 8.74995 10.2073 8.74795C10.1276 8.74594 10.0803 8.74228 10.0513 8.73838C10.0228 8.73455 10.0324 8.73299 10.0607 8.74462C10.0949 8.75872 10.1379 8.78438 10.1768 8.82322L9.64645 9.35355L9.11612 9.88388C9.35192 10.1197 9.6321 10.1955 9.85143 10.225C10.0492 10.2516 10.2855 10.25 10.5 10.25V9.5ZM9.5 8.5H8.75C8.75 8.7145 8.74841 8.95082 8.77499 9.14857C8.80448 9.3679 8.88032 9.64808 9.11612 9.88388L9.64645 9.35355L10.1768 8.82322C10.2156 8.86207 10.2413 8.90508 10.2554 8.93934C10.267 8.96762 10.2654 8.97718 10.2616 8.9487C10.2577 8.91974 10.2541 8.87238 10.252 8.79273C10.25 8.71346 10.25 8.62064 10.25 8.5H9.5ZM12 8.5H11.25C11.25 8.62064 11.25 8.71346 11.248 8.79273C11.2459 8.87238 11.2423 8.91974 11.2384 8.9487C11.2346 8.97718 11.233 8.96762 11.2446 8.93934C11.2587 8.90508 11.2844 8.86207 11.3232 8.82322L11.8536 9.35355L12.3839 9.88388C12.6197 9.64808 12.6955 9.3679 12.725 9.14857C12.7516 8.95082 12.75 8.7145 12.75 8.5H12ZM11 9.5V10.25C11.2145 10.25 11.4508 10.2516 11.6486 10.225C11.8679 10.1955 12.1481 10.1197 12.3839 9.88388L11.8536 9.35355L11.3232 8.82322C11.3621 8.78438 11.4051 8.75872 11.4393 8.74462C11.4676 8.73299 11.4772 8.73455 11.4487 8.73838C11.4197 8.74228 11.3724 8.74594 11.2927 8.74795C11.2135 8.74995 11.1206 8.75 11 8.75V9.5ZM11 7V7.75C11.1206 7.75 11.2135 7.75005 11.2927 7.75205C11.3724 7.75406 11.4197 7.75772 11.4487 7.76162C11.4772 7.76545 11.4676 7.76701 11.4393 7.75538C11.4051 7.74128 11.3621 7.71562 11.3232 7.67678L11.8536 7.14645L12.3839 6.61612C12.1481 6.38032 11.8679 6.30448 11.6486 6.27499C11.4508 6.24841 11.2145 6.25 11 6.25V7ZM12 8H12.75C12.75 7.7855 12.7516 7.54918 12.725 7.35143C12.6955 7.1321 12.6197 6.85192 12.3839 6.61612L11.8536 7.14645L11.3232 7.67678C11.2844 7.63793 11.2587 7.59492 11.2446 7.56066C11.233 7.53238 11.2346 7.52282 11.2384 7.5513C11.2423 7.58026 11.2459 7.62762 11.248 7.70727C11.25 7.78654 11.25 7.87936 11.25 8H12ZM10.5 7V6.25C10.2855 6.25 10.0492 6.24841 9.85143 6.27499C9.6321 6.30448 9.35192 6.38032 9.11612 6.61612L9.64645 7.14645L10.1768 7.67678C10.1379 7.71562 10.0949 7.74128 10.0607 7.75538C10.0324 7.76701 10.0228 7.76545 10.0513 7.76162C10.0803 7.75772 10.1276 7.75406 10.2073 7.75205C10.2865 7.75005 10.3794 7.75 10.5 7.75V7ZM9.5 8H10.25C10.25 7.87936 10.25 7.78654 10.252 7.70727C10.2541 7.62762 10.2577 7.58026 10.2616 7.5513C10.2654 7.52282 10.267 7.53238 10.2554 7.56066C10.2413 7.59492 10.2156 7.63793 10.1768 7.67678L9.64645 7.14645L9.11612 6.61612C8.88032 6.85192 8.80448 7.1321 8.77499 7.35143C8.74841 7.54918 8.75 7.7855 8.75 8H9.5ZM13 4.5V5.25H13.5V4.5V3.75H13V4.5ZM14.5 5.5H13.75V6H14.5H15.25V5.5H14.5ZM13.5 7V6.25H13V7V7.75H13.5V7ZM12 6H12.75V5.5H12H11.25V6H12ZM13 7V6.25C12.8794 6.25 12.7865 6.24995 12.7073 6.24795C12.6276 6.24594 12.5803 6.24228 12.5513 6.23838C12.5228 6.23455 12.5324 6.23299 12.5607 6.24462C12.5949 6.25872 12.6379 6.28438 12.6768 6.32322L12.1464 6.85355L11.6161 7.38388C11.8519 7.61968 12.1321 7.69552 12.3514 7.72501C12.5492 7.75159 12.7855 7.75 13 7.75V7ZM12 6H11.25C11.25 6.2145 11.2484 6.45082 11.275 6.64857C11.3045 6.8679 11.3803 7.14808 11.6161 7.38388L12.1464 6.85355L12.6768 6.32322C12.7156 6.36207 12.7413 6.40508 12.7554 6.43934C12.767 6.46762 12.7654 6.47718 12.7616 6.4487C12.7577 6.41974 12.7541 6.37238 12.752 6.29273C12.75 6.21346 12.75 6.12064 12.75 6H12ZM14.5 6H13.75C13.75 6.12064 13.75 6.21346 13.748 6.29273C13.7459 6.37238 13.7423 6.41974 13.7384 6.4487C13.7346 6.47718 13.733 6.46762 13.7446 6.43934C13.7587 6.40508 13.7844 6.36207 13.8232 6.32322L14.3536 6.85355L14.8839 7.38388C15.1197 7.14808 15.1955 6.8679 15.225 6.64857C15.2516 6.45082 15.25 6.2145 15.25 6H14.5ZM13.5 7V7.75C13.7145 7.75 13.9508 7.75159 14.1486 7.72501C14.3679 7.69552 14.6481 7.61968 14.8839 7.38388L14.3536 6.85355L13.8232 6.32322C13.8621 6.28438 13.9051 6.25872 13.9393 6.24462C13.9676 6.23299 13.9772 6.23455 13.9487 6.23838C13.9197 6.24228 13.8724 6.24594 13.7927 6.24795C13.7135 6.24995 13.6206 6.25 13.5 6.25V7ZM13.5 4.5V5.25C13.6206 5.25 13.7135 5.25005 13.7927 5.25205C13.8724 5.25406 13.9197 5.25772 13.9487 5.26162C13.9772 5.26545 13.9676 5.26701 13.9393 5.25538C13.9051 5.24128 13.8621 5.21562 13.8232 5.17678L14.3536 4.64645L14.8839 4.11612C14.6481 3.88032 14.3679 3.80448 14.1486 3.77499C13.9508 3.74841 13.7145 3.75 13.5 3.75V4.5ZM14.5 5.5H15.25C15.25 5.2855 15.2516 5.04918 15.225 4.85143C15.1955 4.6321 15.1197 4.35192 14.8839 4.11612L14.3536 4.64645L13.8232 5.17678C13.7844 5.13793 13.7587 5.09492 13.7446 5.06066C13.733 5.03238 13.7346 5.02282 13.7384 5.0513C13.7423 5.08026 13.7459 5.12762 13.748 5.20727C13.75 5.28654 13.75 5.37936 13.75 5.5H14.5ZM13 4.5V3.75C12.7855 3.75 12.5492 3.74841 12.3514 3.77499C12.1321 3.80448 11.8519 3.88032 11.6161 4.11612L12.1464 4.64645L12.6768 5.17678C12.6379 5.21562 12.5949 5.24128 12.5607 5.25538C12.5324 5.26701 12.5228 5.26545 12.5513 5.26162C12.5803 5.25772 12.6276 5.25406 12.7073 5.25205C12.7865 5.25005 12.8794 5.25 13 5.25V4.5ZM12 5.5H12.75C12.75 5.37936 12.75 5.28654 12.752 5.20727C12.7541 5.12762 12.7577 5.08026 12.7616 5.0513C12.7654 5.02282 12.767 5.03238 12.7554 5.06066C12.7413 5.09492 12.7156 5.13793 12.6768 5.17678L12.1464 4.64645L11.6161 4.11612C11.3803 4.35192 11.3045 4.6321 11.275 4.85143C11.2484 5.04918 11.25 5.2855 11.25 5.5H12ZM13 9.5V10.25H13.5V9.5V8.75H13V9.5ZM14.5 10.5H13.75V11H14.5H15.25V10.5H14.5ZM13.5 12V11.25H13V12V12.75H13.5V12ZM12 11H12.75V10.5H12H11.25V11H12ZM13 12V11.25C12.8794 11.25 12.7865 11.25 12.7073 11.248C12.6276 11.2459 12.5803 11.2423 12.5513 11.2384C12.5228 11.2346 12.5324 11.233 12.5607 11.2446C12.5949 11.2587 12.6379 11.2844 12.6768 11.3232L12.1464 11.8536L11.6161 12.3839C11.8519 12.6197 12.1321 12.6955 12.3514 12.725C12.5492 12.7516 12.7855 12.75 13 12.75V12ZM12 11H11.25C11.25 11.2145 11.2484 11.4508 11.275 11.6486C11.3045 11.8679 11.3803 12.1481 11.6161 12.3839L12.1464 11.8536L12.6768 11.3232C12.7156 11.3621 12.7413 11.4051 12.7554 11.4393C12.767 11.4676 12.7654 11.4772 12.7616 11.4487C12.7577 11.4197 12.7541 11.3724 12.752 11.2927C12.75 11.2135 12.75 11.1206 12.75 11H12ZM14.5 11H13.75C13.75 11.1206 13.75 11.2135 13.748 11.2927C13.7459 11.3724 13.7423 11.4197 13.7384 11.4487C13.7346 11.4772 13.733 11.4676 13.7446 11.4393C13.7587 11.4051 13.7844 11.3621 13.8232 11.3232L14.3536 11.8536L14.8839 12.3839C15.1197 12.1481 15.1955 11.8679 15.225 11.6486C15.2516 11.4508 15.25 11.2145 15.25 11H14.5ZM13.5 12V12.75C13.7145 12.75 13.9508 12.7516 14.1486 12.725C14.3679 12.6955 14.6481 12.6197 14.8839 12.3839L14.3536 11.8536L13.8232 11.3232C13.8621 11.2844 13.9051 11.2587 13.9393 11.2446C13.9676 11.233 13.9772 11.2346 13.9487 11.2384C13.9197 11.2423 13.8724 11.2459 13.7927 11.248C13.7135 11.25 13.6206 11.25 13.5 11.25V12ZM13.5 9.5V10.25C13.6206 10.25 13.7135 10.25 13.7927 10.252C13.8724 10.2541 13.9197 10.2577 13.9487 10.2616C13.9772 10.2654 13.9676 10.267 13.9393 10.2554C13.9051 10.2413 13.8621 10.2156 13.8232 10.1768L14.3536 9.64645L14.8839 9.11612C14.6481 8.88032 14.3679 8.80448 14.1486 8.77499C13.9508 8.74841 13.7145 8.75 13.5 8.75V9.5ZM14.5 10.5H15.25C15.25 10.2855 15.2516 10.0492 15.225 9.85143C15.1955 9.6321 15.1197 9.35192 14.8839 9.11612L14.3536 9.64645L13.8232 10.1768C13.7844 10.1379 13.7587 10.0949 13.7446 10.0607C13.733 10.0324 13.7346 10.0228 13.7384 10.0513C13.7423 10.0803 13.7459 10.1276 13.748 10.2073C13.75 10.2865 13.75 10.3794 13.75 10.5H14.5ZM13 9.5V8.75C12.7855 8.75 12.5492 8.74841 12.3514 8.77499C12.1321 8.80448 11.8519 8.88032 11.6161 9.11612L12.1464 9.64645L12.6768 10.1768C12.6379 10.2156 12.5949 10.2413 12.5607 10.2554C12.5324 10.267 12.5228 10.2654 12.5513 10.2616C12.5803 10.2577 12.6276 10.2541 12.7073 10.252C12.7865 10.25 12.8794 10.25 13 10.25V9.5ZM12 10.5H12.75C12.75 10.3794 12.75 10.2865 12.752 10.2073C12.7541 10.1276 12.7577 10.0803 12.7616 10.0513C12.7654 10.0228 12.767 10.0324 12.7554 10.0607C12.7413 10.0949 12.7156 10.1379 12.6768 10.1768L12.1464 9.64645L11.6161 9.11612C11.3803 9.35192 11.3045 9.6321 11.275 9.85143C11.2484 10.0492 11.25 10.2855 11.25 10.5H12Z" fill="#1C274C"/>
<path d="M3 10C3 6.22876 3 4.34315 4.17157 3.17157C5.34315 2 7.22876 2 11 2H13C16.7712 2 18.6569 2 19.8284 3.17157C21 4.34315 21 6.22876 21 10V14C21 17.7712 21 19.6569 19.8284 20.8284C18.6569 22 16.7712 22 13 22H11C7.22876 22 5.34315 22 4.17157 20.8284C3 19.6569 3 17.7712 3 14V10Z" stroke="#1C274C" stroke-width="1.5"/>
</svg>
