<svg width="24" height="24" viewBox="0 0 24 24" fill="none" xmlns="http://www.w3.org/2000/svg">
<path d="M7 7C7 3.68629 8.93658 2 11.8718 2C13.7242 2 15.1788 2.6716 16 4" stroke="#1C274C" stroke-width="1.5" stroke-linecap="round"/>
<path d="M12 12V14.5" stroke="#1C274C" stroke-width="1.5" stroke-linecap="round"/>
<path d="M7.07161 18.9503C7.81454 19.5423 8.57318 20.0869 9.26556 20.6154C10.2 21.3285 11.1 22 12 22C12.9 22 13.8 21.3285 14.7344 20.6154C17.3825 18.5943 21 16.3364 21 12.0992C21 7.86196 16.0499 4.85701 12 8.93062C7.95014 4.85701 3 7.86196 3 12.0992C3 13.4078 3.34504 14.5276 3.9 15.51" stroke="#1C274C" stroke-width="1.5" stroke-linecap="round" stroke-linejoin="round"/>
</svg>
